M48
; DRILL file {KiCad 9.0.6} date 2026-01-10T10:28:44+0200
; FORMAT={-:-/ absolute / metric / decimal}
; #@! TF.CreationDate,2026-01-10T10:28:44+02:00
; #@! TF.GenerationSoftware,Kicad,Pcbnew,9.0.6
; #@! TF.FileFunction,Plated,1,4,PTH
FMAT,2
METRIC
; #@! TA.AperFunction,Plated,PTH,ViaDrill
T1C0.300
; #@! TA.AperFunction,Plated,PTH,ComponentDrill
T2C0.300
; #@! TA.AperFunction,Plated,PTH,ComponentDrill
T3C1.000
; #@! TA.AperFunction,Plated,PTH,ComponentDrill
T4C1.200
; #@! TA.AperFunction,Plated,PTH,ComponentDrill
T5C1.300
; #@! TA.AperFunction,Plated,PTH,ComponentDrill
T6C1.500
; #@! TA.AperFunction,Plated,PTH,ComponentDrill
T7C1.900
%
G90
G05
T1
X86.45Y-97.85
X88.95Y-100.1
X90.2Y-89.1
X91.01Y-101.06
X91.03Y-98.44
X92.7Y-91.1
X92.95Y-97.85
X96.45Y-90.35
X97.7Y-95.85
X98.2Y-111.85
X99.975Y-118.575
X102.7Y-122.1
X105.2Y-91.85
X105.7Y-121.1
X107.2Y-121.1
X107.7Y-109.1
X110.2Y-115.6
X111.2Y-110.6
X111.7Y-115.6
X112.2Y-91.85
X112.2Y-110.6
X112.45Y-117.35
X112.575Y-119.95
X113.35Y-114.1
X114.026Y-104.926
X114.2Y-108.6
X114.2Y-113.1
X114.45Y-91.85
X114.95Y-114.1
X115.7Y-117.1
X115.762Y-107.838
X115.95Y-102.35
X116.362Y-107.1
X116.542Y-105.526
X116.7Y-118.6
X117.45Y-106.5
X117.45Y-115.2
X118.45Y-119.6
X119.625Y-102.1
X119.999Y-119.25
X120.2Y-92.35
X120.45Y-107.1
X120.95Y-103.1
X121.2Y-110.6
X121.2Y-114.85
X121.45Y-117.35
X121.6Y-103.809
X122.175Y-114.85
X122.2Y-121.1
X122.675Y-111.451
X122.7Y-109.75
X123.025Y-90.8
X123.45Y-99.35
X123.45Y-108.35
X123.703Y-107.591
X123.875Y-110.85
X123.95Y-119.1
X124.084Y-114.522
X124.557Y-104.707
X124.675Y-115.1
X125.059Y-116.329
X125.175Y-100.0
X125.45Y-104.35
X125.45Y-109.85
X125.7Y-115.85
X125.947Y-119.084
X126.65Y-86.85
X126.7Y-110.85
X127.2Y-109.35
X127.7Y-121.35
X127.875Y-98.729
X128.45Y-107.975
X128.45Y-108.775
X128.651Y-111.7
X128.95Y-102.6
X129.2Y-125.1
X130.45Y-97.35
X131.45Y-93.1
X131.7Y-108.85
X131.825Y-115.725
X132.2Y-126.1
X132.45Y-119.85
X132.7Y-109.85
X132.95Y-111.1
X132.95Y-128.6
X133.2Y-112.9
X133.45Y-98.85
X133.7Y-104.6
X134.7Y-124.85
X135.4Y-111.8
X136.45Y-108.1
X137.7Y-112.1
X137.774Y-105.625
X138.95Y-107.1
X138.95Y-109.35
X139.2Y-101.35
X139.2Y-128.6
X141.2Y-127.6
X145.45Y-101.6
X146.2Y-100.6
X148.7Y-101.6
X151.45Y-100.6
X154.2Y-98.35
T2
X104.42Y-124.34
X105.42Y-124.34
T3
X77.875Y-109.3
X77.875Y-120.3
X92.97Y-100.12
X92.97Y-115.12
X97.735Y-83.66
X97.735Y-86.2
X97.735Y-88.74
X100.275Y-83.66
X100.275Y-86.2
X100.275Y-88.74
X106.41Y-83.66
X106.41Y-86.2
X106.41Y-88.74
X108.95Y-83.66
X108.95Y-86.2
X108.95Y-88.74
X115.085Y-83.66
X115.085Y-86.2
X115.085Y-88.74
X117.625Y-83.66
X117.625Y-86.2
X117.625Y-88.74
T4
X84.285Y-126.0
X86.825Y-126.0
X91.06Y-126.0
X93.6Y-126.0
X97.8Y-126.0
X100.34Y-126.0
T5
X79.593Y-91.85
X79.593Y-95.35
X79.593Y-100.95
X79.593Y-104.45
T6
X153.66Y-100.85
X153.66Y-105.93
X153.7Y-113.85
X153.7Y-118.93
X156.2Y-103.39
X156.24Y-116.39
X158.74Y-100.85
X158.74Y-105.93
X158.78Y-113.85
X158.78Y-118.93
T7
X87.875Y-112.3
X87.875Y-117.3
M30
