%TF.GenerationSoftware,KiCad,Pcbnew,9.0.6*%
%TF.CreationDate,2026-01-10T10:28:34+02:00*%
%TF.ProjectId,flight_comp,666c6967-6874-45f6-936f-6d702e6b6963,rev?*%
%TF.SameCoordinates,Original*%
%TF.FileFunction,Legend,Bot*%
%TF.FilePolarity,Positive*%
%FSLAX46Y46*%
G04 Gerber Fmt 4.6, Leading zero omitted, Abs format (unit mm)*
G04 Created by KiCad (PCBNEW 9.0.6) date 2026-01-10 10:28:34*
%MOMM*%
%LPD*%
G01*
G04 APERTURE LIST*
%ADD10C,0.100000*%
%ADD11C,0.150000*%
%ADD12C,0.120000*%
G04 APERTURE END LIST*
D10*
X105025000Y-82275000D02*
X106125000Y-82275000D01*
X106525000Y-82275000D02*
X107625000Y-82275000D01*
X108025000Y-82275000D02*
X109125000Y-82275000D01*
X109525000Y-82275000D02*
X110350000Y-82275000D01*
X110350000Y-82275000D02*
X110350000Y-83375000D01*
X110350000Y-83775000D02*
X110350000Y-84775000D01*
X110350000Y-84775000D02*
X109250000Y-84775000D01*
X108850000Y-84775000D02*
X107750000Y-84775000D01*
X107350000Y-84775000D02*
X106250000Y-84775000D01*
X105850000Y-84775000D02*
X105025000Y-84775000D01*
X105025000Y-84775000D02*
X105025000Y-83675000D01*
X105025000Y-83275000D02*
X105025000Y-82275000D01*
X113700000Y-84950000D02*
X119025000Y-84950000D01*
X119025000Y-87450000D01*
X113700000Y-87450000D01*
X113700000Y-84950000D01*
X105025000Y-84950000D02*
X110350000Y-84950000D01*
X110350000Y-87450000D01*
X105025000Y-87450000D01*
X105025000Y-84950000D01*
X113700000Y-82275000D02*
X114800000Y-82275000D01*
X115200000Y-82275000D02*
X116300000Y-82275000D01*
X116700000Y-82275000D02*
X117800000Y-82275000D01*
X118200000Y-82275000D02*
X119025000Y-82275000D01*
X119025000Y-82275000D02*
X119025000Y-83375000D01*
X119025000Y-83775000D02*
X119025000Y-84775000D01*
X119025000Y-84775000D02*
X117925000Y-84775000D01*
X117525000Y-84775000D02*
X116425000Y-84775000D01*
X116025000Y-84775000D02*
X114925000Y-84775000D01*
X114525000Y-84775000D02*
X113700000Y-84775000D01*
X113700000Y-84775000D02*
X113700000Y-83675000D01*
X113700000Y-83275000D02*
X113700000Y-82275000D01*
X96350000Y-82275000D02*
X97450000Y-82275000D01*
X97850000Y-82275000D02*
X98950000Y-82275000D01*
X99350000Y-82275000D02*
X100450000Y-82275000D01*
X100850000Y-82275000D02*
X101675000Y-82275000D01*
X101675000Y-82275000D02*
X101675000Y-83375000D01*
X101675000Y-83775000D02*
X101675000Y-84775000D01*
X101675000Y-84775000D02*
X100575000Y-84775000D01*
X100175000Y-84775000D02*
X99075000Y-84775000D01*
X98675000Y-84775000D02*
X97575000Y-84775000D01*
X97175000Y-84775000D02*
X96350000Y-84775000D01*
X96350000Y-84775000D02*
X96350000Y-83675000D01*
X96350000Y-83275000D02*
X96350000Y-82275000D01*
X96350000Y-84950000D02*
X101675000Y-84950000D01*
X101675000Y-87450000D01*
X96350000Y-87450000D01*
X96350000Y-84950000D01*
G36*
X116548496Y-91702531D02*
G01*
X116368514Y-91702531D01*
X116244554Y-91661211D01*
X116163398Y-91580054D01*
X116121863Y-91496984D01*
X116077068Y-91317804D01*
X116077068Y-91187257D01*
X116121863Y-91008077D01*
X116163399Y-90925005D01*
X116244552Y-90843851D01*
X116368514Y-90802531D01*
X116548496Y-90802531D01*
X116548496Y-91702531D01*
G37*
G36*
X118949957Y-95133530D02*
G01*
X114342147Y-95133530D01*
X114342147Y-94162895D01*
X114453258Y-94162895D01*
X114453258Y-94258133D01*
X114454821Y-94265995D01*
X114455824Y-94273944D01*
X114503443Y-94416801D01*
X114504683Y-94418976D01*
X114504683Y-94420124D01*
X114509136Y-94426788D01*
X114513104Y-94433749D01*
X114514130Y-94434262D01*
X114515522Y-94436345D01*
X115001595Y-94922419D01*
X114503258Y-94922419D01*
X114484124Y-94926225D01*
X114457064Y-94953285D01*
X114457064Y-94991553D01*
X114484124Y-95018613D01*
X114503258Y-95022419D01*
X115122305Y-95022419D01*
X115141439Y-95018613D01*
X115168499Y-94991553D01*
X115168499Y-94953285D01*
X115157660Y-94937064D01*
X114907300Y-94686704D01*
X115405639Y-94686704D01*
X115405639Y-94781942D01*
X115406127Y-94784398D01*
X115405765Y-94785487D01*
X115407881Y-94793214D01*
X115409445Y-94801076D01*
X115410256Y-94801887D01*
X115410918Y-94804303D01*
X115458536Y-94899540D01*
X115463447Y-94905868D01*
X115467902Y-94912535D01*
X115515521Y-94960155D01*
X115522187Y-94964609D01*
X115528516Y-94969521D01*
X115623754Y-95017140D01*
X115626169Y-95017801D01*
X115626981Y-95018613D01*
X115634842Y-95020176D01*
X115642570Y-95022293D01*
X115643658Y-95021930D01*
X115646115Y-95022419D01*
X115884210Y-95022419D01*
X115892072Y-95020855D01*
X115900021Y-95019853D01*
X116042878Y-94972234D01*
X116059826Y-94962573D01*
X116064470Y-94953285D01*
X117123731Y-94953285D01*
X117123731Y-94991553D01*
X117150791Y-95018613D01*
X117169925Y-95022419D01*
X117741353Y-95022419D01*
X117760487Y-95018613D01*
X117787547Y-94991553D01*
X117787547Y-94953285D01*
X117760487Y-94926225D01*
X117741353Y-94922419D01*
X117505639Y-94922419D01*
X117505639Y-94686704D01*
X118072306Y-94686704D01*
X118072306Y-94781942D01*
X118072794Y-94784398D01*
X118072432Y-94785487D01*
X118074548Y-94793214D01*
X118076112Y-94801076D01*
X118076923Y-94801887D01*
X118077585Y-94804303D01*
X118125203Y-94899540D01*
X118130114Y-94905868D01*
X118134569Y-94912535D01*
X118182188Y-94960155D01*
X118188854Y-94964609D01*
X118195183Y-94969521D01*
X118290421Y-95017140D01*
X118292836Y-95017801D01*
X118293648Y-95018613D01*
X118301509Y-95020176D01*
X118309237Y-95022293D01*
X118310325Y-95021930D01*
X118312782Y-95022419D01*
X118550877Y-95022419D01*
X118558739Y-95020855D01*
X118566688Y-95019853D01*
X118709545Y-94972234D01*
X118726493Y-94962573D01*
X118743608Y-94928344D01*
X118731506Y-94892040D01*
X118697278Y-94874926D01*
X118677922Y-94877366D01*
X118542764Y-94922419D01*
X118324586Y-94922419D01*
X118247163Y-94883708D01*
X118211017Y-94847561D01*
X118172306Y-94770139D01*
X118172306Y-94698507D01*
X118211017Y-94621083D01*
X118247162Y-94584939D01*
X118330234Y-94543403D01*
X118515385Y-94497116D01*
X118520337Y-94494776D01*
X118525619Y-94493330D01*
X118620856Y-94445712D01*
X118627189Y-94440796D01*
X118633851Y-94436345D01*
X118681470Y-94388727D01*
X118685924Y-94382060D01*
X118690836Y-94375732D01*
X118738455Y-94280494D01*
X118739116Y-94278078D01*
X118739928Y-94277267D01*
X118741491Y-94269405D01*
X118743608Y-94261678D01*
X118743245Y-94260589D01*
X118743734Y-94258133D01*
X118743734Y-94162895D01*
X118743245Y-94160438D01*
X118743608Y-94159350D01*
X118741491Y-94151622D01*
X118739928Y-94143761D01*
X118739116Y-94142949D01*
X118738455Y-94140534D01*
X118690836Y-94045296D01*
X118685924Y-94038967D01*
X118681470Y-94032301D01*
X118633851Y-93984683D01*
X118627189Y-93980231D01*
X118620856Y-93975316D01*
X118525619Y-93927698D01*
X118523203Y-93927036D01*
X118522392Y-93926225D01*
X118514530Y-93924661D01*
X118506803Y-93922545D01*
X118505714Y-93922907D01*
X118503258Y-93922419D01*
X118265163Y-93922419D01*
X118257301Y-93923982D01*
X118249351Y-93924985D01*
X118106495Y-93972604D01*
X118089546Y-93982265D01*
X118072432Y-94016494D01*
X118084533Y-94052798D01*
X118118762Y-94069912D01*
X118138117Y-94067472D01*
X118273276Y-94022419D01*
X118491455Y-94022419D01*
X118568878Y-94061130D01*
X118605022Y-94097275D01*
X118643734Y-94174698D01*
X118643734Y-94246329D01*
X118605022Y-94323752D01*
X118568878Y-94359897D01*
X118485807Y-94401433D01*
X118300655Y-94447721D01*
X118295702Y-94450060D01*
X118290421Y-94451507D01*
X118195183Y-94499126D01*
X118188854Y-94504037D01*
X118182188Y-94508492D01*
X118134570Y-94556111D01*
X118130118Y-94562772D01*
X118125203Y-94569106D01*
X118077585Y-94664343D01*
X118076923Y-94666758D01*
X118076112Y-94667570D01*
X118074548Y-94675431D01*
X118072432Y-94683159D01*
X118072794Y-94684247D01*
X118072306Y-94686704D01*
X117505639Y-94686704D01*
X117505639Y-94137557D01*
X117509275Y-94143011D01*
X117512771Y-94146515D01*
X117515522Y-94150631D01*
X117610760Y-94245869D01*
X117617419Y-94250319D01*
X117623754Y-94255235D01*
X117718992Y-94302854D01*
X117737808Y-94308007D01*
X117774113Y-94295905D01*
X117791227Y-94261677D01*
X117779125Y-94225373D01*
X117763713Y-94213411D01*
X117675731Y-94169420D01*
X117589736Y-94083425D01*
X117497242Y-93944684D01*
X117483461Y-93930875D01*
X117478413Y-93929865D01*
X117474773Y-93926225D01*
X117460211Y-93926225D01*
X117445936Y-93923370D01*
X117441653Y-93926225D01*
X117436505Y-93926225D01*
X117426208Y-93936521D01*
X117414095Y-93944597D01*
X117413085Y-93949644D01*
X117409445Y-93953285D01*
X117405639Y-93972419D01*
X117405639Y-94922419D01*
X117169925Y-94922419D01*
X117150791Y-94926225D01*
X117123731Y-94953285D01*
X116064470Y-94953285D01*
X116076941Y-94928344D01*
X116064839Y-94892040D01*
X116030611Y-94874926D01*
X116011255Y-94877366D01*
X115876097Y-94922419D01*
X115657919Y-94922419D01*
X115580496Y-94883708D01*
X115544350Y-94847561D01*
X115505639Y-94770139D01*
X115505639Y-94698507D01*
X115544350Y-94621083D01*
X115580495Y-94584939D01*
X115663567Y-94543403D01*
X115848718Y-94497116D01*
X115853670Y-94494776D01*
X115858952Y-94493330D01*
X115954189Y-94445712D01*
X115960522Y-94440796D01*
X115967184Y-94436345D01*
X116014803Y-94388727D01*
X116019257Y-94382060D01*
X116024169Y-94375732D01*
X116071788Y-94280494D01*
X116072449Y-94278078D01*
X116073261Y-94277267D01*
X116074824Y-94269405D01*
X116076941Y-94261678D01*
X116076578Y-94260589D01*
X116077067Y-94258133D01*
X116077067Y-94162895D01*
X116076578Y-94160438D01*
X116076941Y-94159350D01*
X116074824Y-94151622D01*
X116073261Y-94143761D01*
X116072449Y-94142949D01*
X116071788Y-94140534D01*
X116024169Y-94045296D01*
X116019257Y-94038967D01*
X116014803Y-94032301D01*
X115967184Y-93984683D01*
X115960522Y-93980231D01*
X115954189Y-93975316D01*
X115858952Y-93927698D01*
X115856536Y-93927036D01*
X115855725Y-93926225D01*
X115847863Y-93924661D01*
X115840136Y-93922545D01*
X115839047Y-93922907D01*
X115836591Y-93922419D01*
X115598496Y-93922419D01*
X115590634Y-93923982D01*
X115582684Y-93924985D01*
X115439828Y-93972604D01*
X115422879Y-93982265D01*
X115405765Y-94016494D01*
X115417866Y-94052798D01*
X115452095Y-94069912D01*
X115471450Y-94067472D01*
X115606609Y-94022419D01*
X115824788Y-94022419D01*
X115902211Y-94061130D01*
X115938355Y-94097275D01*
X115977067Y-94174698D01*
X115977067Y-94246329D01*
X115938355Y-94323752D01*
X115902211Y-94359897D01*
X115819140Y-94401433D01*
X115633988Y-94447721D01*
X115629035Y-94450060D01*
X115623754Y-94451507D01*
X115528516Y-94499126D01*
X115522187Y-94504037D01*
X115515521Y-94508492D01*
X115467903Y-94556111D01*
X115463451Y-94562772D01*
X115458536Y-94569106D01*
X115410918Y-94664343D01*
X115410256Y-94666758D01*
X115409445Y-94667570D01*
X115407881Y-94675431D01*
X115405765Y-94683159D01*
X115406127Y-94684247D01*
X115405639Y-94686704D01*
X114907300Y-94686704D01*
X114594578Y-94373981D01*
X114553258Y-94250019D01*
X114553258Y-94174698D01*
X114591969Y-94097274D01*
X114628114Y-94061130D01*
X114705538Y-94022419D01*
X114920026Y-94022419D01*
X114997449Y-94061130D01*
X115039330Y-94103012D01*
X115055551Y-94113851D01*
X115093820Y-94113851D01*
X115120880Y-94086791D01*
X115120880Y-94048522D01*
X115110041Y-94032301D01*
X115062422Y-93984683D01*
X115055760Y-93980231D01*
X115049427Y-93975316D01*
X114954190Y-93927698D01*
X114951774Y-93927036D01*
X114950963Y-93926225D01*
X114943101Y-93924661D01*
X114935374Y-93922545D01*
X114934285Y-93922907D01*
X114931829Y-93922419D01*
X114693734Y-93922419D01*
X114691277Y-93922907D01*
X114690189Y-93922545D01*
X114682461Y-93924661D01*
X114674600Y-93926225D01*
X114673788Y-93927036D01*
X114671373Y-93927698D01*
X114576135Y-93975317D01*
X114569806Y-93980228D01*
X114563140Y-93984683D01*
X114515522Y-94032302D01*
X114511070Y-94038963D01*
X114506155Y-94045297D01*
X114458537Y-94140534D01*
X114457875Y-94142949D01*
X114457064Y-94143761D01*
X114455500Y-94151622D01*
X114453384Y-94159350D01*
X114453746Y-94160438D01*
X114453258Y-94162895D01*
X114342147Y-94162895D01*
X114342147Y-92438579D01*
X116171350Y-92438579D01*
X116171350Y-92476847D01*
X116198410Y-92503907D01*
X116236678Y-92503907D01*
X116252899Y-92493068D01*
X116292172Y-92453795D01*
X116416133Y-92412475D01*
X116495145Y-92412475D01*
X116619106Y-92453795D01*
X116700259Y-92534948D01*
X116741796Y-92618022D01*
X116786591Y-92797201D01*
X116786591Y-92927748D01*
X116741796Y-93106926D01*
X116700259Y-93190000D01*
X116619105Y-93271154D01*
X116495145Y-93312475D01*
X116416133Y-93312475D01*
X116292173Y-93271155D01*
X116252900Y-93231881D01*
X116236679Y-93221042D01*
X116198410Y-93221042D01*
X116171350Y-93248101D01*
X116171350Y-93286370D01*
X116182188Y-93302591D01*
X116229807Y-93350211D01*
X116231889Y-93351602D01*
X116232403Y-93352629D01*
X116239361Y-93356595D01*
X116246028Y-93361050D01*
X116247177Y-93361050D01*
X116249352Y-93362290D01*
X116392208Y-93409909D01*
X116400158Y-93410911D01*
X116408020Y-93412475D01*
X116503258Y-93412475D01*
X116511120Y-93410911D01*
X116519069Y-93409909D01*
X116661926Y-93362290D01*
X116664101Y-93361050D01*
X116665250Y-93361050D01*
X116671920Y-93356592D01*
X116678874Y-93352629D01*
X116679386Y-93351603D01*
X116681471Y-93350211D01*
X116776709Y-93254972D01*
X116781162Y-93248306D01*
X116786074Y-93241978D01*
X116833693Y-93146740D01*
X116835139Y-93141458D01*
X116837479Y-93136506D01*
X116885098Y-92946030D01*
X116885395Y-92939912D01*
X116886591Y-92933903D01*
X116886591Y-92791046D01*
X116885395Y-92785036D01*
X116885098Y-92778919D01*
X116837479Y-92588443D01*
X116835139Y-92583490D01*
X116833693Y-92578209D01*
X116786074Y-92482971D01*
X116781158Y-92476636D01*
X116776708Y-92469977D01*
X116745310Y-92438579D01*
X117171350Y-92438579D01*
X117171350Y-92476847D01*
X117198410Y-92503907D01*
X117236678Y-92503907D01*
X117252899Y-92493068D01*
X117292172Y-92453795D01*
X117416133Y-92412475D01*
X117495145Y-92412475D01*
X117619106Y-92453795D01*
X117700259Y-92534948D01*
X117741796Y-92618022D01*
X117786591Y-92797201D01*
X117786591Y-92927748D01*
X117741796Y-93106926D01*
X117700259Y-93190000D01*
X117619105Y-93271154D01*
X117495145Y-93312475D01*
X117416133Y-93312475D01*
X117292173Y-93271155D01*
X117252900Y-93231881D01*
X117236679Y-93221042D01*
X117198410Y-93221042D01*
X117171350Y-93248101D01*
X117171350Y-93286370D01*
X117182188Y-93302591D01*
X117229807Y-93350211D01*
X117231889Y-93351602D01*
X117232403Y-93352629D01*
X117239361Y-93356595D01*
X117246028Y-93361050D01*
X117247177Y-93361050D01*
X117249352Y-93362290D01*
X117392208Y-93409909D01*
X117400158Y-93410911D01*
X117408020Y-93412475D01*
X117503258Y-93412475D01*
X117511120Y-93410911D01*
X117519069Y-93409909D01*
X117661926Y-93362290D01*
X117664101Y-93361050D01*
X117665250Y-93361050D01*
X117671920Y-93356592D01*
X117678874Y-93352629D01*
X117679386Y-93351603D01*
X117681471Y-93350211D01*
X117776709Y-93254972D01*
X117781162Y-93248306D01*
X117786074Y-93241978D01*
X117833693Y-93146740D01*
X117835139Y-93141458D01*
X117837479Y-93136506D01*
X117885098Y-92946030D01*
X117885395Y-92939912D01*
X117886591Y-92933903D01*
X117886591Y-92791046D01*
X117885395Y-92785036D01*
X117885098Y-92778919D01*
X117837479Y-92588443D01*
X117835139Y-92583490D01*
X117833693Y-92578209D01*
X117786074Y-92482971D01*
X117781158Y-92476636D01*
X117776708Y-92469977D01*
X117681470Y-92374739D01*
X117679387Y-92373347D01*
X117678874Y-92372321D01*
X117671913Y-92368353D01*
X117665249Y-92363900D01*
X117664101Y-92363900D01*
X117661926Y-92362660D01*
X117650739Y-92358931D01*
X118072432Y-92358931D01*
X118074872Y-92378286D01*
X118408205Y-93378286D01*
X118417866Y-93395234D01*
X118421207Y-93396904D01*
X118422879Y-93400248D01*
X118437921Y-93405261D01*
X118452095Y-93412349D01*
X118455638Y-93411167D01*
X118459183Y-93412349D01*
X118473362Y-93405259D01*
X118488399Y-93400247D01*
X118490069Y-93396906D01*
X118493412Y-93395235D01*
X118503073Y-93378286D01*
X118836406Y-92378287D01*
X118838846Y-92358931D01*
X118821732Y-92324703D01*
X118785428Y-92312601D01*
X118751199Y-92329716D01*
X118741538Y-92346664D01*
X118455639Y-93204361D01*
X118169740Y-92346664D01*
X118160079Y-92329715D01*
X118125850Y-92312601D01*
X118089546Y-92324702D01*
X118072432Y-92358931D01*
X117650739Y-92358931D01*
X117519069Y-92315041D01*
X117511120Y-92314038D01*
X117503258Y-92312475D01*
X117408020Y-92312475D01*
X117400158Y-92314038D01*
X117392208Y-92315041D01*
X117249352Y-92362660D01*
X117247177Y-92363900D01*
X117246028Y-92363900D01*
X117239361Y-92368354D01*
X117232403Y-92372321D01*
X117231889Y-92373347D01*
X117229807Y-92374739D01*
X117182189Y-92422358D01*
X117171350Y-92438579D01*
X116745310Y-92438579D01*
X116681470Y-92374739D01*
X116679387Y-92373347D01*
X116678874Y-92372321D01*
X116671913Y-92368353D01*
X116665249Y-92363900D01*
X116664101Y-92363900D01*
X116661926Y-92362660D01*
X116519069Y-92315041D01*
X116511120Y-92314038D01*
X116503258Y-92312475D01*
X116408020Y-92312475D01*
X116400158Y-92314038D01*
X116392208Y-92315041D01*
X116249352Y-92362660D01*
X116247177Y-92363900D01*
X116246028Y-92363900D01*
X116239361Y-92368354D01*
X116232403Y-92372321D01*
X116231889Y-92373347D01*
X116229807Y-92374739D01*
X116182189Y-92422358D01*
X116171350Y-92438579D01*
X114342147Y-92438579D01*
X114342147Y-91181102D01*
X115977068Y-91181102D01*
X115977068Y-91323959D01*
X115978263Y-91329968D01*
X115978561Y-91336086D01*
X116026180Y-91526562D01*
X116028519Y-91531514D01*
X116029966Y-91536796D01*
X116077584Y-91632033D01*
X116082495Y-91638361D01*
X116086950Y-91645028D01*
X116182189Y-91740267D01*
X116184270Y-91741657D01*
X116184784Y-91742685D01*
X116191749Y-91746655D01*
X116198410Y-91751106D01*
X116199558Y-91751106D01*
X116201733Y-91752346D01*
X116344589Y-91799965D01*
X116352539Y-91800967D01*
X116360401Y-91802531D01*
X116598496Y-91802531D01*
X116617630Y-91798725D01*
X116644690Y-91771665D01*
X116648496Y-91752531D01*
X116648496Y-90752531D01*
X117024687Y-90752531D01*
X117024687Y-91752531D01*
X117028493Y-91771665D01*
X117033347Y-91776519D01*
X117035155Y-91783146D01*
X117046399Y-91789571D01*
X117055553Y-91798725D01*
X117062419Y-91798725D01*
X117068381Y-91802132D01*
X117080874Y-91798725D01*
X117093821Y-91798725D01*
X117098675Y-91793870D01*
X117105302Y-91792063D01*
X117118099Y-91777338D01*
X117596115Y-90940809D01*
X117596115Y-91752531D01*
X117599921Y-91771665D01*
X117626981Y-91798725D01*
X117665249Y-91798725D01*
X117692309Y-91771665D01*
X117696115Y-91752531D01*
X117696115Y-91323959D01*
X118024687Y-91323959D01*
X118024687Y-91657292D01*
X118028493Y-91676426D01*
X118039331Y-91692647D01*
X118086950Y-91740267D01*
X118089032Y-91741658D01*
X118089546Y-91742685D01*
X118096504Y-91746651D01*
X118103171Y-91751106D01*
X118104320Y-91751106D01*
X118106495Y-91752346D01*
X118249351Y-91799965D01*
X118257301Y-91800967D01*
X118265163Y-91802531D01*
X118360401Y-91802531D01*
X118368263Y-91800967D01*
X118376212Y-91799965D01*
X118519069Y-91752346D01*
X118521244Y-91751106D01*
X118522393Y-91751106D01*
X118529063Y-91746648D01*
X118536017Y-91742685D01*
X118536529Y-91741659D01*
X118538614Y-91740267D01*
X118633852Y-91645028D01*
X118638305Y-91638362D01*
X118643217Y-91632034D01*
X118690836Y-91536796D01*
X118692282Y-91531514D01*
X118694622Y-91526562D01*
X118742241Y-91336086D01*
X118742538Y-91329968D01*
X118743734Y-91323959D01*
X118743734Y-91181102D01*
X118742538Y-91175092D01*
X118742241Y-91168975D01*
X118694622Y-90978499D01*
X118692282Y-90973546D01*
X118690836Y-90968265D01*
X118643217Y-90873027D01*
X118638301Y-90866692D01*
X118633851Y-90860033D01*
X118538613Y-90764795D01*
X118536530Y-90763403D01*
X118536017Y-90762377D01*
X118529056Y-90758409D01*
X118522392Y-90753956D01*
X118521244Y-90753956D01*
X118519069Y-90752716D01*
X118376212Y-90705097D01*
X118368263Y-90704094D01*
X118360401Y-90702531D01*
X118217544Y-90702531D01*
X118215087Y-90703019D01*
X118213999Y-90702657D01*
X118206271Y-90704773D01*
X118198410Y-90706337D01*
X118197598Y-90707148D01*
X118195183Y-90707810D01*
X118099945Y-90755429D01*
X118084533Y-90767390D01*
X118072432Y-90803695D01*
X118089546Y-90837923D01*
X118125851Y-90850024D01*
X118144667Y-90844871D01*
X118229348Y-90802531D01*
X118352288Y-90802531D01*
X118476249Y-90843851D01*
X118557402Y-90925004D01*
X118598939Y-91008078D01*
X118643734Y-91187257D01*
X118643734Y-91317804D01*
X118598939Y-91496982D01*
X118557402Y-91580056D01*
X118476248Y-91661210D01*
X118352288Y-91702531D01*
X118273276Y-91702531D01*
X118149316Y-91661211D01*
X118124687Y-91636581D01*
X118124687Y-91373959D01*
X118265163Y-91373959D01*
X118284297Y-91370153D01*
X118311357Y-91343093D01*
X118311357Y-91304825D01*
X118284297Y-91277765D01*
X118265163Y-91273959D01*
X118074687Y-91273959D01*
X118055553Y-91277765D01*
X118028493Y-91304825D01*
X118024687Y-91323959D01*
X117696115Y-91323959D01*
X117696115Y-90752531D01*
X117692309Y-90733397D01*
X117687454Y-90728542D01*
X117685647Y-90721916D01*
X117674402Y-90715490D01*
X117665249Y-90706337D01*
X117658383Y-90706337D01*
X117652421Y-90702930D01*
X117639929Y-90706337D01*
X117626981Y-90706337D01*
X117622125Y-90711192D01*
X117615501Y-90712999D01*
X117602703Y-90727724D01*
X117124687Y-91564252D01*
X117124687Y-90752531D01*
X117120881Y-90733397D01*
X117093821Y-90706337D01*
X117055553Y-90706337D01*
X117028493Y-90733397D01*
X117024687Y-90752531D01*
X116648496Y-90752531D01*
X116644690Y-90733397D01*
X116617630Y-90706337D01*
X116598496Y-90702531D01*
X116360401Y-90702531D01*
X116352539Y-90704094D01*
X116344589Y-90705097D01*
X116201733Y-90752716D01*
X116199558Y-90753956D01*
X116198410Y-90753956D01*
X116191749Y-90758406D01*
X116184784Y-90762377D01*
X116184270Y-90763404D01*
X116182189Y-90764795D01*
X116086951Y-90860033D01*
X116082499Y-90866694D01*
X116077584Y-90873028D01*
X116029966Y-90968265D01*
X116028519Y-90973546D01*
X116026180Y-90978499D01*
X115978561Y-91168975D01*
X115978263Y-91175092D01*
X115977068Y-91181102D01*
X114342147Y-91181102D01*
X114342147Y-90591420D01*
X118949957Y-90591420D01*
X118949957Y-95133530D01*
G37*
G36*
X76403998Y-94556175D02*
G01*
X76483707Y-94635884D01*
X76522419Y-94713306D01*
X76522419Y-94880175D01*
X76483707Y-94957597D01*
X76403998Y-95037306D01*
X76232930Y-95080074D01*
X75911907Y-95080074D01*
X75740837Y-95037306D01*
X75661131Y-94957600D01*
X75622419Y-94880176D01*
X75622419Y-94713306D01*
X75661131Y-94635882D01*
X75740837Y-94556175D01*
X75911907Y-94513408D01*
X76232930Y-94513408D01*
X76403998Y-94556175D01*
G37*
G36*
X76046228Y-93880175D02*
G01*
X76007516Y-93957598D01*
X75971372Y-93993743D01*
X75893949Y-94032455D01*
X75774699Y-94032455D01*
X75697275Y-93993743D01*
X75661130Y-93957599D01*
X75622419Y-93880176D01*
X75622419Y-93561027D01*
X76046228Y-93561027D01*
X76046228Y-93880175D01*
G37*
G36*
X76046228Y-92023032D02*
G01*
X76007516Y-92100455D01*
X75971372Y-92136600D01*
X75893949Y-92175312D01*
X75774699Y-92175312D01*
X75697275Y-92136600D01*
X75661130Y-92100456D01*
X75622419Y-92023033D01*
X75622419Y-91703884D01*
X76046228Y-91703884D01*
X76046228Y-92023032D01*
G37*
G36*
X76733530Y-96239760D02*
G01*
X75411308Y-96239760D01*
X75411308Y-95806444D01*
X75523370Y-95806444D01*
X75526225Y-95810726D01*
X75526225Y-95815875D01*
X75536521Y-95826171D01*
X75544597Y-95838285D01*
X75549644Y-95839294D01*
X75553285Y-95842935D01*
X75572419Y-95846741D01*
X76522419Y-95846741D01*
X76522419Y-96082455D01*
X76526225Y-96101589D01*
X76553285Y-96128649D01*
X76591553Y-96128649D01*
X76618613Y-96101589D01*
X76622419Y-96082455D01*
X76622419Y-95511027D01*
X76618613Y-95491893D01*
X76591553Y-95464833D01*
X76553285Y-95464833D01*
X76526225Y-95491893D01*
X76522419Y-95511027D01*
X76522419Y-95746741D01*
X75737557Y-95746741D01*
X75743011Y-95743105D01*
X75746515Y-95739608D01*
X75750631Y-95736858D01*
X75845869Y-95641620D01*
X75850319Y-95634960D01*
X75855235Y-95628626D01*
X75902854Y-95533388D01*
X75908007Y-95514572D01*
X75895905Y-95478267D01*
X75861677Y-95461153D01*
X75825373Y-95473255D01*
X75813411Y-95488667D01*
X75769420Y-95576648D01*
X75683425Y-95662644D01*
X75544684Y-95755138D01*
X75530875Y-95768919D01*
X75529865Y-95773966D01*
X75526225Y-95777607D01*
X75526225Y-95792169D01*
X75523370Y-95806444D01*
X75411308Y-95806444D01*
X75411308Y-94701503D01*
X75522419Y-94701503D01*
X75522419Y-94891979D01*
X75522907Y-94894435D01*
X75522545Y-94895524D01*
X75524661Y-94903251D01*
X75526225Y-94911113D01*
X75527036Y-94911924D01*
X75527698Y-94914340D01*
X75575316Y-95009577D01*
X75580231Y-95015910D01*
X75584683Y-95022572D01*
X75679921Y-95117810D01*
X75684423Y-95120818D01*
X75685510Y-95122629D01*
X75691048Y-95125245D01*
X75696142Y-95128649D01*
X75698253Y-95128649D01*
X75703149Y-95130962D01*
X75893625Y-95178581D01*
X75899742Y-95178878D01*
X75905752Y-95180074D01*
X76239085Y-95180074D01*
X76245094Y-95178878D01*
X76251212Y-95178581D01*
X76441688Y-95130962D01*
X76446584Y-95128649D01*
X76448695Y-95128649D01*
X76453790Y-95125244D01*
X76459327Y-95122629D01*
X76460412Y-95120820D01*
X76464916Y-95117811D01*
X76560155Y-95022572D01*
X76564605Y-95015912D01*
X76569521Y-95009578D01*
X76617140Y-94914340D01*
X76617801Y-94911924D01*
X76618613Y-94911113D01*
X76620176Y-94903251D01*
X76622293Y-94895524D01*
X76621930Y-94894435D01*
X76622419Y-94891979D01*
X76622419Y-94701503D01*
X76621930Y-94699046D01*
X76622293Y-94697958D01*
X76620176Y-94690230D01*
X76618613Y-94682369D01*
X76617801Y-94681557D01*
X76617140Y-94679142D01*
X76569521Y-94583904D01*
X76564605Y-94577569D01*
X76560155Y-94570910D01*
X76464916Y-94475671D01*
X76460412Y-94472661D01*
X76459327Y-94470853D01*
X76453790Y-94468237D01*
X76448695Y-94464833D01*
X76446584Y-94464833D01*
X76441688Y-94462520D01*
X76251212Y-94414901D01*
X76245094Y-94414603D01*
X76239085Y-94413408D01*
X75905752Y-94413408D01*
X75899742Y-94414603D01*
X75893625Y-94414901D01*
X75703149Y-94462520D01*
X75698253Y-94464833D01*
X75696142Y-94464833D01*
X75691048Y-94468236D01*
X75685510Y-94470853D01*
X75684423Y-94472663D01*
X75679921Y-94475672D01*
X75584683Y-94570910D01*
X75580231Y-94577571D01*
X75575316Y-94583905D01*
X75527698Y-94679142D01*
X75527036Y-94681557D01*
X75526225Y-94682369D01*
X75524661Y-94690230D01*
X75522545Y-94697958D01*
X75522907Y-94699046D01*
X75522419Y-94701503D01*
X75411308Y-94701503D01*
X75411308Y-93511027D01*
X75522419Y-93511027D01*
X75522419Y-93891979D01*
X75522907Y-93894435D01*
X75522545Y-93895524D01*
X75524661Y-93903251D01*
X75526225Y-93911113D01*
X75527036Y-93911924D01*
X75527698Y-93914340D01*
X75575316Y-94009577D01*
X75580231Y-94015910D01*
X75584683Y-94022572D01*
X75632301Y-94070191D01*
X75638967Y-94074645D01*
X75645296Y-94079557D01*
X75740534Y-94127176D01*
X75742949Y-94127837D01*
X75743761Y-94128649D01*
X75751622Y-94130212D01*
X75759350Y-94132329D01*
X75760438Y-94131966D01*
X75762895Y-94132455D01*
X75905752Y-94132455D01*
X75908208Y-94131966D01*
X75909297Y-94132329D01*
X75917024Y-94130212D01*
X75924886Y-94128649D01*
X75925697Y-94127837D01*
X75928113Y-94127176D01*
X76023350Y-94079558D01*
X76029683Y-94074642D01*
X76036345Y-94070191D01*
X76083964Y-94022573D01*
X76088418Y-94015906D01*
X76093330Y-94009578D01*
X76140949Y-93914340D01*
X76141610Y-93911924D01*
X76142422Y-93911113D01*
X76143985Y-93903251D01*
X76146102Y-93895524D01*
X76145739Y-93894435D01*
X76146228Y-93891979D01*
X76146228Y-93845154D01*
X76543746Y-94123417D01*
X76561604Y-94131271D01*
X76599290Y-94124621D01*
X76621235Y-94093270D01*
X76614585Y-94055584D01*
X76601092Y-94041493D01*
X76146228Y-93723088D01*
X76146228Y-93561027D01*
X76572419Y-93561027D01*
X76591553Y-93557221D01*
X76618613Y-93530161D01*
X76618613Y-93491893D01*
X76591553Y-93464833D01*
X76572419Y-93461027D01*
X75572419Y-93461027D01*
X75553285Y-93464833D01*
X75526225Y-93491893D01*
X75522419Y-93511027D01*
X75411308Y-93511027D01*
X75411308Y-92502369D01*
X75523174Y-92502369D01*
X75531476Y-92539727D01*
X75545575Y-92553210D01*
X76003096Y-92844360D01*
X75545575Y-93135510D01*
X75531476Y-93148993D01*
X75523174Y-93186351D01*
X75543719Y-93218636D01*
X75581077Y-93226938D01*
X75599263Y-93219876D01*
X76110788Y-92894360D01*
X76572419Y-92894360D01*
X76591553Y-92890554D01*
X76618613Y-92863494D01*
X76618613Y-92825226D01*
X76591553Y-92798166D01*
X76572419Y-92794360D01*
X76110788Y-92794360D01*
X75599263Y-92468844D01*
X75581077Y-92461782D01*
X75543719Y-92470084D01*
X75523174Y-92502369D01*
X75411308Y-92502369D01*
X75411308Y-91653884D01*
X75522419Y-91653884D01*
X75522419Y-92034836D01*
X75522907Y-92037292D01*
X75522545Y-92038381D01*
X75524661Y-92046108D01*
X75526225Y-92053970D01*
X75527036Y-92054781D01*
X75527698Y-92057197D01*
X75575316Y-92152434D01*
X75580231Y-92158767D01*
X75584683Y-92165429D01*
X75632301Y-92213048D01*
X75638967Y-92217502D01*
X75645296Y-92222414D01*
X75740534Y-92270033D01*
X75742949Y-92270694D01*
X75743761Y-92271506D01*
X75751622Y-92273069D01*
X75759350Y-92275186D01*
X75760438Y-92274823D01*
X75762895Y-92275312D01*
X75905752Y-92275312D01*
X75908208Y-92274823D01*
X75909297Y-92275186D01*
X75917024Y-92273069D01*
X75924886Y-92271506D01*
X75925697Y-92270694D01*
X75928113Y-92270033D01*
X76023350Y-92222415D01*
X76029683Y-92217499D01*
X76036345Y-92213048D01*
X76083964Y-92165430D01*
X76088418Y-92158763D01*
X76093330Y-92152435D01*
X76140949Y-92057197D01*
X76141610Y-92054781D01*
X76142422Y-92053970D01*
X76143985Y-92046108D01*
X76146102Y-92038381D01*
X76145739Y-92037292D01*
X76146228Y-92034836D01*
X76146228Y-91703884D01*
X76572419Y-91703884D01*
X76591553Y-91700078D01*
X76618613Y-91673018D01*
X76618613Y-91634750D01*
X76591553Y-91607690D01*
X76572419Y-91603884D01*
X75572419Y-91603884D01*
X75553285Y-91607690D01*
X75526225Y-91634750D01*
X75522419Y-91653884D01*
X75411308Y-91653884D01*
X75411308Y-91492773D01*
X76733530Y-91492773D01*
X76733530Y-96239760D01*
G37*
G36*
X107798496Y-91702531D02*
G01*
X107618514Y-91702531D01*
X107494554Y-91661211D01*
X107413398Y-91580054D01*
X107371863Y-91496984D01*
X107327068Y-91317804D01*
X107327068Y-91187257D01*
X107371863Y-91008077D01*
X107413399Y-90925005D01*
X107494552Y-90843851D01*
X107618514Y-90802531D01*
X107798496Y-90802531D01*
X107798496Y-91702531D01*
G37*
G36*
X110199957Y-95133530D02*
G01*
X105548334Y-95133530D01*
X105548334Y-94619951D01*
X105659445Y-94619951D01*
X105659445Y-94658219D01*
X105686505Y-94685279D01*
X105705639Y-94689085D01*
X105798496Y-94689085D01*
X105798496Y-94972419D01*
X105802302Y-94991553D01*
X105829362Y-95018613D01*
X105867630Y-95018613D01*
X105894690Y-94991553D01*
X105898496Y-94972419D01*
X105898496Y-94689085D01*
X106324686Y-94689085D01*
X106336656Y-94686704D01*
X106655639Y-94686704D01*
X106655639Y-94781942D01*
X106656127Y-94784398D01*
X106655765Y-94785487D01*
X106657881Y-94793214D01*
X106659445Y-94801076D01*
X106660256Y-94801887D01*
X106660918Y-94804303D01*
X106708536Y-94899540D01*
X106713447Y-94905868D01*
X106717902Y-94912535D01*
X106765521Y-94960155D01*
X106772187Y-94964609D01*
X106778516Y-94969521D01*
X106873754Y-95017140D01*
X106876169Y-95017801D01*
X106876981Y-95018613D01*
X106884842Y-95020176D01*
X106892570Y-95022293D01*
X106893658Y-95021930D01*
X106896115Y-95022419D01*
X107134210Y-95022419D01*
X107142072Y-95020855D01*
X107150021Y-95019853D01*
X107292878Y-94972234D01*
X107309826Y-94962573D01*
X107326941Y-94928344D01*
X107314839Y-94892040D01*
X107280611Y-94874926D01*
X107261255Y-94877366D01*
X107126097Y-94922419D01*
X106907919Y-94922419D01*
X106830496Y-94883708D01*
X106794350Y-94847561D01*
X106755639Y-94770139D01*
X106755639Y-94698507D01*
X106794350Y-94621083D01*
X106830495Y-94584939D01*
X106912679Y-94543847D01*
X108369925Y-94543847D01*
X108369925Y-94781942D01*
X108370413Y-94784398D01*
X108370051Y-94785487D01*
X108372167Y-94793214D01*
X108373731Y-94801076D01*
X108374542Y-94801887D01*
X108375204Y-94804303D01*
X108422822Y-94899540D01*
X108427733Y-94905868D01*
X108432188Y-94912535D01*
X108479807Y-94960155D01*
X108486473Y-94964609D01*
X108492802Y-94969521D01*
X108588040Y-95017140D01*
X108590455Y-95017801D01*
X108591267Y-95018613D01*
X108599128Y-95020176D01*
X108606856Y-95022293D01*
X108607944Y-95021930D01*
X108610401Y-95022419D01*
X108896115Y-95022419D01*
X108898571Y-95021930D01*
X108899660Y-95022293D01*
X108907387Y-95020176D01*
X108915249Y-95018613D01*
X108916060Y-95017801D01*
X108918476Y-95017140D01*
X109013713Y-94969522D01*
X109020040Y-94964611D01*
X109026709Y-94960155D01*
X109074328Y-94912535D01*
X109085166Y-94896314D01*
X109085166Y-94858045D01*
X109058106Y-94830986D01*
X109019837Y-94830986D01*
X109003616Y-94841825D01*
X108961733Y-94883708D01*
X108884312Y-94922419D01*
X108622205Y-94922419D01*
X108544782Y-94883708D01*
X108508636Y-94847561D01*
X108469925Y-94770139D01*
X108469925Y-94686704D01*
X109322306Y-94686704D01*
X109322306Y-94781942D01*
X109322794Y-94784398D01*
X109322432Y-94785487D01*
X109324548Y-94793214D01*
X109326112Y-94801076D01*
X109326923Y-94801887D01*
X109327585Y-94804303D01*
X109375203Y-94899540D01*
X109380114Y-94905868D01*
X109384569Y-94912535D01*
X109432188Y-94960155D01*
X109438854Y-94964609D01*
X109445183Y-94969521D01*
X109540421Y-95017140D01*
X109542836Y-95017801D01*
X109543648Y-95018613D01*
X109551509Y-95020176D01*
X109559237Y-95022293D01*
X109560325Y-95021930D01*
X109562782Y-95022419D01*
X109800877Y-95022419D01*
X109808739Y-95020855D01*
X109816688Y-95019853D01*
X109959545Y-94972234D01*
X109976493Y-94962573D01*
X109993608Y-94928344D01*
X109981506Y-94892040D01*
X109947278Y-94874926D01*
X109927922Y-94877366D01*
X109792764Y-94922419D01*
X109574586Y-94922419D01*
X109497163Y-94883708D01*
X109461017Y-94847561D01*
X109422306Y-94770139D01*
X109422306Y-94698507D01*
X109461017Y-94621083D01*
X109497162Y-94584939D01*
X109580234Y-94543403D01*
X109765385Y-94497116D01*
X109770337Y-94494776D01*
X109775619Y-94493330D01*
X109870856Y-94445712D01*
X109877189Y-94440796D01*
X109883851Y-94436345D01*
X109931470Y-94388727D01*
X109935924Y-94382060D01*
X109940836Y-94375732D01*
X109988455Y-94280494D01*
X109989116Y-94278078D01*
X109989928Y-94277267D01*
X109991491Y-94269405D01*
X109993608Y-94261678D01*
X109993245Y-94260589D01*
X109993734Y-94258133D01*
X109993734Y-94162895D01*
X109993245Y-94160438D01*
X109993608Y-94159350D01*
X109991491Y-94151622D01*
X109989928Y-94143761D01*
X109989116Y-94142949D01*
X109988455Y-94140534D01*
X109940836Y-94045296D01*
X109935924Y-94038967D01*
X109931470Y-94032301D01*
X109883851Y-93984683D01*
X109877189Y-93980231D01*
X109870856Y-93975316D01*
X109775619Y-93927698D01*
X109773203Y-93927036D01*
X109772392Y-93926225D01*
X109764530Y-93924661D01*
X109756803Y-93922545D01*
X109755714Y-93922907D01*
X109753258Y-93922419D01*
X109515163Y-93922419D01*
X109507301Y-93923982D01*
X109499351Y-93924985D01*
X109356495Y-93972604D01*
X109339546Y-93982265D01*
X109322432Y-94016494D01*
X109334533Y-94052798D01*
X109368762Y-94069912D01*
X109388117Y-94067472D01*
X109523276Y-94022419D01*
X109741455Y-94022419D01*
X109818878Y-94061130D01*
X109855022Y-94097275D01*
X109893734Y-94174698D01*
X109893734Y-94246329D01*
X109855022Y-94323752D01*
X109818878Y-94359897D01*
X109735807Y-94401433D01*
X109550655Y-94447721D01*
X109545702Y-94450060D01*
X109540421Y-94451507D01*
X109445183Y-94499126D01*
X109438854Y-94504037D01*
X109432188Y-94508492D01*
X109384570Y-94556111D01*
X109380118Y-94562772D01*
X109375203Y-94569106D01*
X109327585Y-94664343D01*
X109326923Y-94666758D01*
X109326112Y-94667570D01*
X109324548Y-94675431D01*
X109322432Y-94683159D01*
X109322794Y-94684247D01*
X109322306Y-94686704D01*
X108469925Y-94686704D01*
X108469925Y-94555650D01*
X108508636Y-94478226D01*
X108544781Y-94442082D01*
X108622205Y-94403371D01*
X108753258Y-94403371D01*
X108767204Y-94400596D01*
X108769277Y-94400735D01*
X108770091Y-94400022D01*
X108772392Y-94399565D01*
X108784832Y-94387124D01*
X108798077Y-94375536D01*
X108798195Y-94373761D01*
X108799452Y-94372505D01*
X108799452Y-94354906D01*
X108800622Y-94337352D01*
X108799452Y-94335320D01*
X108799452Y-94334237D01*
X108797981Y-94332766D01*
X108790887Y-94320446D01*
X108530113Y-94022419D01*
X109038972Y-94022419D01*
X109058106Y-94018613D01*
X109085166Y-93991553D01*
X109085166Y-93953285D01*
X109058106Y-93926225D01*
X109038972Y-93922419D01*
X108419925Y-93922419D01*
X108405978Y-93925193D01*
X108403906Y-93925055D01*
X108403091Y-93925767D01*
X108400791Y-93926225D01*
X108388350Y-93938665D01*
X108375106Y-93950254D01*
X108374987Y-93952028D01*
X108373731Y-93953285D01*
X108373731Y-93970883D01*
X108372561Y-93988438D01*
X108373731Y-93990469D01*
X108373731Y-93991553D01*
X108375201Y-93993023D01*
X108382296Y-94005344D01*
X108643070Y-94303371D01*
X108610401Y-94303371D01*
X108607944Y-94303859D01*
X108606856Y-94303497D01*
X108599128Y-94305613D01*
X108591267Y-94307177D01*
X108590455Y-94307988D01*
X108588040Y-94308650D01*
X108492802Y-94356269D01*
X108486473Y-94361180D01*
X108479807Y-94365635D01*
X108432189Y-94413254D01*
X108427737Y-94419915D01*
X108422822Y-94426249D01*
X108375204Y-94521486D01*
X108374542Y-94523901D01*
X108373731Y-94524713D01*
X108372167Y-94532574D01*
X108370051Y-94540302D01*
X108370413Y-94541390D01*
X108369925Y-94543847D01*
X106912679Y-94543847D01*
X106913567Y-94543403D01*
X107098718Y-94497116D01*
X107103670Y-94494776D01*
X107108952Y-94493330D01*
X107204189Y-94445712D01*
X107210522Y-94440796D01*
X107217184Y-94436345D01*
X107264803Y-94388727D01*
X107269257Y-94382060D01*
X107274169Y-94375732D01*
X107321788Y-94280494D01*
X107322449Y-94278078D01*
X107323261Y-94277267D01*
X107324824Y-94269405D01*
X107326941Y-94261678D01*
X107326578Y-94260589D01*
X107327067Y-94258133D01*
X107327067Y-94162895D01*
X107326578Y-94160438D01*
X107326941Y-94159350D01*
X107324824Y-94151622D01*
X107323261Y-94143761D01*
X107322449Y-94142949D01*
X107321788Y-94140534D01*
X107274169Y-94045296D01*
X107269257Y-94038967D01*
X107264803Y-94032301D01*
X107217184Y-93984683D01*
X107210522Y-93980231D01*
X107204189Y-93975316D01*
X107108952Y-93927698D01*
X107106536Y-93927036D01*
X107105725Y-93926225D01*
X107097863Y-93924661D01*
X107090136Y-93922545D01*
X107089047Y-93922907D01*
X107086591Y-93922419D01*
X106848496Y-93922419D01*
X106840634Y-93923982D01*
X106832684Y-93924985D01*
X106689828Y-93972604D01*
X106672879Y-93982265D01*
X106655765Y-94016494D01*
X106667866Y-94052798D01*
X106702095Y-94069912D01*
X106721450Y-94067472D01*
X106856609Y-94022419D01*
X107074788Y-94022419D01*
X107152211Y-94061130D01*
X107188355Y-94097275D01*
X107227067Y-94174698D01*
X107227067Y-94246329D01*
X107188355Y-94323752D01*
X107152211Y-94359897D01*
X107069140Y-94401433D01*
X106883988Y-94447721D01*
X106879035Y-94450060D01*
X106873754Y-94451507D01*
X106778516Y-94499126D01*
X106772187Y-94504037D01*
X106765521Y-94508492D01*
X106717903Y-94556111D01*
X106713451Y-94562772D01*
X106708536Y-94569106D01*
X106660918Y-94664343D01*
X106660256Y-94666758D01*
X106659445Y-94667570D01*
X106657881Y-94675431D01*
X106655765Y-94683159D01*
X106656127Y-94684247D01*
X106655639Y-94686704D01*
X106336656Y-94686704D01*
X106343820Y-94685279D01*
X106349639Y-94679459D01*
X106357446Y-94676857D01*
X106362650Y-94666449D01*
X106370880Y-94658219D01*
X106370880Y-94649989D01*
X106374560Y-94642629D01*
X106372120Y-94623273D01*
X106134025Y-93908989D01*
X106124364Y-93892040D01*
X106090135Y-93874926D01*
X106053831Y-93887027D01*
X106036717Y-93921256D01*
X106039157Y-93940611D01*
X106255315Y-94589085D01*
X105898496Y-94589085D01*
X105898496Y-94305752D01*
X105894690Y-94286618D01*
X105867630Y-94259558D01*
X105829362Y-94259558D01*
X105802302Y-94286618D01*
X105798496Y-94305752D01*
X105798496Y-94589085D01*
X105705639Y-94589085D01*
X105686505Y-94592891D01*
X105659445Y-94619951D01*
X105548334Y-94619951D01*
X105548334Y-92438579D01*
X107421350Y-92438579D01*
X107421350Y-92476847D01*
X107448410Y-92503907D01*
X107486678Y-92503907D01*
X107502899Y-92493068D01*
X107542172Y-92453795D01*
X107666133Y-92412475D01*
X107745145Y-92412475D01*
X107869106Y-92453795D01*
X107950259Y-92534948D01*
X107991796Y-92618022D01*
X108036591Y-92797201D01*
X108036591Y-92927748D01*
X107991796Y-93106926D01*
X107950259Y-93190000D01*
X107869105Y-93271154D01*
X107745145Y-93312475D01*
X107666133Y-93312475D01*
X107542173Y-93271155D01*
X107502900Y-93231881D01*
X107486679Y-93221042D01*
X107448410Y-93221042D01*
X107421350Y-93248101D01*
X107421350Y-93286370D01*
X107432188Y-93302591D01*
X107479807Y-93350211D01*
X107481889Y-93351602D01*
X107482403Y-93352629D01*
X107489361Y-93356595D01*
X107496028Y-93361050D01*
X107497177Y-93361050D01*
X107499352Y-93362290D01*
X107642208Y-93409909D01*
X107650158Y-93410911D01*
X107658020Y-93412475D01*
X107753258Y-93412475D01*
X107761120Y-93410911D01*
X107769069Y-93409909D01*
X107911926Y-93362290D01*
X107914101Y-93361050D01*
X107915250Y-93361050D01*
X107921920Y-93356592D01*
X107928874Y-93352629D01*
X107929386Y-93351603D01*
X107931471Y-93350211D01*
X108026709Y-93254972D01*
X108031162Y-93248306D01*
X108036074Y-93241978D01*
X108083693Y-93146740D01*
X108085139Y-93141458D01*
X108087479Y-93136506D01*
X108135098Y-92946030D01*
X108135395Y-92939912D01*
X108136591Y-92933903D01*
X108136591Y-92791046D01*
X108135395Y-92785036D01*
X108135098Y-92778919D01*
X108087479Y-92588443D01*
X108085139Y-92583490D01*
X108083693Y-92578209D01*
X108036074Y-92482971D01*
X108031158Y-92476636D01*
X108026708Y-92469977D01*
X107995310Y-92438579D01*
X108421350Y-92438579D01*
X108421350Y-92476847D01*
X108448410Y-92503907D01*
X108486678Y-92503907D01*
X108502899Y-92493068D01*
X108542172Y-92453795D01*
X108666133Y-92412475D01*
X108745145Y-92412475D01*
X108869106Y-92453795D01*
X108950259Y-92534948D01*
X108991796Y-92618022D01*
X109036591Y-92797201D01*
X109036591Y-92927748D01*
X108991796Y-93106926D01*
X108950259Y-93190000D01*
X108869105Y-93271154D01*
X108745145Y-93312475D01*
X108666133Y-93312475D01*
X108542173Y-93271155D01*
X108502900Y-93231881D01*
X108486679Y-93221042D01*
X108448410Y-93221042D01*
X108421350Y-93248101D01*
X108421350Y-93286370D01*
X108432188Y-93302591D01*
X108479807Y-93350211D01*
X108481889Y-93351602D01*
X108482403Y-93352629D01*
X108489361Y-93356595D01*
X108496028Y-93361050D01*
X108497177Y-93361050D01*
X108499352Y-93362290D01*
X108642208Y-93409909D01*
X108650158Y-93410911D01*
X108658020Y-93412475D01*
X108753258Y-93412475D01*
X108761120Y-93410911D01*
X108769069Y-93409909D01*
X108911926Y-93362290D01*
X108914101Y-93361050D01*
X108915250Y-93361050D01*
X108921920Y-93356592D01*
X108928874Y-93352629D01*
X108929386Y-93351603D01*
X108931471Y-93350211D01*
X109026709Y-93254972D01*
X109031162Y-93248306D01*
X109036074Y-93241978D01*
X109083693Y-93146740D01*
X109085139Y-93141458D01*
X109087479Y-93136506D01*
X109135098Y-92946030D01*
X109135395Y-92939912D01*
X109136591Y-92933903D01*
X109136591Y-92791046D01*
X109135395Y-92785036D01*
X109135098Y-92778919D01*
X109087479Y-92588443D01*
X109085139Y-92583490D01*
X109083693Y-92578209D01*
X109036074Y-92482971D01*
X109031158Y-92476636D01*
X109026708Y-92469977D01*
X108931470Y-92374739D01*
X108929387Y-92373347D01*
X108928874Y-92372321D01*
X108921913Y-92368353D01*
X108915249Y-92363900D01*
X108914101Y-92363900D01*
X108911926Y-92362660D01*
X108900739Y-92358931D01*
X109322432Y-92358931D01*
X109324872Y-92378286D01*
X109658205Y-93378286D01*
X109667866Y-93395234D01*
X109671207Y-93396904D01*
X109672879Y-93400248D01*
X109687921Y-93405261D01*
X109702095Y-93412349D01*
X109705638Y-93411167D01*
X109709183Y-93412349D01*
X109723362Y-93405259D01*
X109738399Y-93400247D01*
X109740069Y-93396906D01*
X109743412Y-93395235D01*
X109753073Y-93378286D01*
X110086406Y-92378287D01*
X110088846Y-92358931D01*
X110071732Y-92324703D01*
X110035428Y-92312601D01*
X110001199Y-92329716D01*
X109991538Y-92346664D01*
X109705639Y-93204361D01*
X109419740Y-92346664D01*
X109410079Y-92329715D01*
X109375850Y-92312601D01*
X109339546Y-92324702D01*
X109322432Y-92358931D01*
X108900739Y-92358931D01*
X108769069Y-92315041D01*
X108761120Y-92314038D01*
X108753258Y-92312475D01*
X108658020Y-92312475D01*
X108650158Y-92314038D01*
X108642208Y-92315041D01*
X108499352Y-92362660D01*
X108497177Y-92363900D01*
X108496028Y-92363900D01*
X108489361Y-92368354D01*
X108482403Y-92372321D01*
X108481889Y-92373347D01*
X108479807Y-92374739D01*
X108432189Y-92422358D01*
X108421350Y-92438579D01*
X107995310Y-92438579D01*
X107931470Y-92374739D01*
X107929387Y-92373347D01*
X107928874Y-92372321D01*
X107921913Y-92368353D01*
X107915249Y-92363900D01*
X107914101Y-92363900D01*
X107911926Y-92362660D01*
X107769069Y-92315041D01*
X107761120Y-92314038D01*
X107753258Y-92312475D01*
X107658020Y-92312475D01*
X107650158Y-92314038D01*
X107642208Y-92315041D01*
X107499352Y-92362660D01*
X107497177Y-92363900D01*
X107496028Y-92363900D01*
X107489361Y-92368354D01*
X107482403Y-92372321D01*
X107481889Y-92373347D01*
X107479807Y-92374739D01*
X107432189Y-92422358D01*
X107421350Y-92438579D01*
X105548334Y-92438579D01*
X105548334Y-91181102D01*
X107227068Y-91181102D01*
X107227068Y-91323959D01*
X107228263Y-91329968D01*
X107228561Y-91336086D01*
X107276180Y-91526562D01*
X107278519Y-91531514D01*
X107279966Y-91536796D01*
X107327584Y-91632033D01*
X107332495Y-91638361D01*
X107336950Y-91645028D01*
X107432189Y-91740267D01*
X107434270Y-91741657D01*
X107434784Y-91742685D01*
X107441749Y-91746655D01*
X107448410Y-91751106D01*
X107449558Y-91751106D01*
X107451733Y-91752346D01*
X107594589Y-91799965D01*
X107602539Y-91800967D01*
X107610401Y-91802531D01*
X107848496Y-91802531D01*
X107867630Y-91798725D01*
X107894690Y-91771665D01*
X107898496Y-91752531D01*
X107898496Y-90752531D01*
X108274687Y-90752531D01*
X108274687Y-91752531D01*
X108278493Y-91771665D01*
X108283347Y-91776519D01*
X108285155Y-91783146D01*
X108296399Y-91789571D01*
X108305553Y-91798725D01*
X108312419Y-91798725D01*
X108318381Y-91802132D01*
X108330874Y-91798725D01*
X108343821Y-91798725D01*
X108348675Y-91793870D01*
X108355302Y-91792063D01*
X108368099Y-91777338D01*
X108846115Y-90940809D01*
X108846115Y-91752531D01*
X108849921Y-91771665D01*
X108876981Y-91798725D01*
X108915249Y-91798725D01*
X108942309Y-91771665D01*
X108946115Y-91752531D01*
X108946115Y-91323959D01*
X109274687Y-91323959D01*
X109274687Y-91657292D01*
X109278493Y-91676426D01*
X109289331Y-91692647D01*
X109336950Y-91740267D01*
X109339032Y-91741658D01*
X109339546Y-91742685D01*
X109346504Y-91746651D01*
X109353171Y-91751106D01*
X109354320Y-91751106D01*
X109356495Y-91752346D01*
X109499351Y-91799965D01*
X109507301Y-91800967D01*
X109515163Y-91802531D01*
X109610401Y-91802531D01*
X109618263Y-91800967D01*
X109626212Y-91799965D01*
X109769069Y-91752346D01*
X109771244Y-91751106D01*
X109772393Y-91751106D01*
X109779063Y-91746648D01*
X109786017Y-91742685D01*
X109786529Y-91741659D01*
X109788614Y-91740267D01*
X109883852Y-91645028D01*
X109888305Y-91638362D01*
X109893217Y-91632034D01*
X109940836Y-91536796D01*
X109942282Y-91531514D01*
X109944622Y-91526562D01*
X109992241Y-91336086D01*
X109992538Y-91329968D01*
X109993734Y-91323959D01*
X109993734Y-91181102D01*
X109992538Y-91175092D01*
X109992241Y-91168975D01*
X109944622Y-90978499D01*
X109942282Y-90973546D01*
X109940836Y-90968265D01*
X109893217Y-90873027D01*
X109888301Y-90866692D01*
X109883851Y-90860033D01*
X109788613Y-90764795D01*
X109786530Y-90763403D01*
X109786017Y-90762377D01*
X109779056Y-90758409D01*
X109772392Y-90753956D01*
X109771244Y-90753956D01*
X109769069Y-90752716D01*
X109626212Y-90705097D01*
X109618263Y-90704094D01*
X109610401Y-90702531D01*
X109467544Y-90702531D01*
X109465087Y-90703019D01*
X109463999Y-90702657D01*
X109456271Y-90704773D01*
X109448410Y-90706337D01*
X109447598Y-90707148D01*
X109445183Y-90707810D01*
X109349945Y-90755429D01*
X109334533Y-90767390D01*
X109322432Y-90803695D01*
X109339546Y-90837923D01*
X109375851Y-90850024D01*
X109394667Y-90844871D01*
X109479348Y-90802531D01*
X109602288Y-90802531D01*
X109726249Y-90843851D01*
X109807402Y-90925004D01*
X109848939Y-91008078D01*
X109893734Y-91187257D01*
X109893734Y-91317804D01*
X109848939Y-91496982D01*
X109807402Y-91580056D01*
X109726248Y-91661210D01*
X109602288Y-91702531D01*
X109523276Y-91702531D01*
X109399316Y-91661211D01*
X109374687Y-91636581D01*
X109374687Y-91373959D01*
X109515163Y-91373959D01*
X109534297Y-91370153D01*
X109561357Y-91343093D01*
X109561357Y-91304825D01*
X109534297Y-91277765D01*
X109515163Y-91273959D01*
X109324687Y-91273959D01*
X109305553Y-91277765D01*
X109278493Y-91304825D01*
X109274687Y-91323959D01*
X108946115Y-91323959D01*
X108946115Y-90752531D01*
X108942309Y-90733397D01*
X108937454Y-90728542D01*
X108935647Y-90721916D01*
X108924402Y-90715490D01*
X108915249Y-90706337D01*
X108908383Y-90706337D01*
X108902421Y-90702930D01*
X108889929Y-90706337D01*
X108876981Y-90706337D01*
X108872125Y-90711192D01*
X108865501Y-90712999D01*
X108852703Y-90727724D01*
X108374687Y-91564252D01*
X108374687Y-90752531D01*
X108370881Y-90733397D01*
X108343821Y-90706337D01*
X108305553Y-90706337D01*
X108278493Y-90733397D01*
X108274687Y-90752531D01*
X107898496Y-90752531D01*
X107894690Y-90733397D01*
X107867630Y-90706337D01*
X107848496Y-90702531D01*
X107610401Y-90702531D01*
X107602539Y-90704094D01*
X107594589Y-90705097D01*
X107451733Y-90752716D01*
X107449558Y-90753956D01*
X107448410Y-90753956D01*
X107441749Y-90758406D01*
X107434784Y-90762377D01*
X107434270Y-90763404D01*
X107432189Y-90764795D01*
X107336951Y-90860033D01*
X107332499Y-90866694D01*
X107327584Y-90873028D01*
X107279966Y-90968265D01*
X107278519Y-90973546D01*
X107276180Y-90978499D01*
X107228561Y-91168975D01*
X107228263Y-91175092D01*
X107227068Y-91181102D01*
X105548334Y-91181102D01*
X105548334Y-90591420D01*
X110199957Y-90591420D01*
X110199957Y-95133530D01*
G37*
G36*
X76403998Y-103306175D02*
G01*
X76483707Y-103385884D01*
X76522419Y-103463306D01*
X76522419Y-103630175D01*
X76483707Y-103707597D01*
X76403998Y-103787306D01*
X76232930Y-103830074D01*
X75911907Y-103830074D01*
X75740837Y-103787306D01*
X75661131Y-103707600D01*
X75622419Y-103630176D01*
X75622419Y-103463306D01*
X75661131Y-103385882D01*
X75740837Y-103306175D01*
X75911907Y-103263408D01*
X76232930Y-103263408D01*
X76403998Y-103306175D01*
G37*
G36*
X76046228Y-102630175D02*
G01*
X76007516Y-102707598D01*
X75971372Y-102743743D01*
X75893949Y-102782455D01*
X75774699Y-102782455D01*
X75697275Y-102743743D01*
X75661130Y-102707599D01*
X75622419Y-102630176D01*
X75622419Y-102311027D01*
X76046228Y-102311027D01*
X76046228Y-102630175D01*
G37*
G36*
X76046228Y-100773032D02*
G01*
X76007516Y-100850455D01*
X75971372Y-100886600D01*
X75893949Y-100925312D01*
X75774699Y-100925312D01*
X75697275Y-100886600D01*
X75661130Y-100850456D01*
X75622419Y-100773033D01*
X75622419Y-100453884D01*
X76046228Y-100453884D01*
X76046228Y-100773032D01*
G37*
G36*
X76733530Y-104993566D02*
G01*
X75411308Y-104993566D01*
X75411308Y-104403884D01*
X75522419Y-104403884D01*
X75522419Y-104641979D01*
X75522907Y-104644435D01*
X75522545Y-104645524D01*
X75524661Y-104653251D01*
X75526225Y-104661113D01*
X75527036Y-104661924D01*
X75527698Y-104664340D01*
X75575316Y-104759577D01*
X75580231Y-104765910D01*
X75584683Y-104772572D01*
X75632301Y-104820191D01*
X75638967Y-104824645D01*
X75645296Y-104829557D01*
X75740534Y-104877176D01*
X75742949Y-104877837D01*
X75743761Y-104878649D01*
X75751622Y-104880212D01*
X75759350Y-104882329D01*
X75760438Y-104881966D01*
X75762895Y-104882455D01*
X75858133Y-104882455D01*
X75865995Y-104880891D01*
X75873944Y-104879889D01*
X76016801Y-104832270D01*
X76018976Y-104831030D01*
X76020124Y-104831030D01*
X76026788Y-104826576D01*
X76033749Y-104822609D01*
X76034262Y-104821582D01*
X76036345Y-104820191D01*
X76522419Y-104334117D01*
X76522419Y-104832455D01*
X76526225Y-104851589D01*
X76553285Y-104878649D01*
X76591553Y-104878649D01*
X76618613Y-104851589D01*
X76622419Y-104832455D01*
X76622419Y-104213408D01*
X76618613Y-104194274D01*
X76591553Y-104167214D01*
X76553285Y-104167214D01*
X76537064Y-104178053D01*
X75973981Y-104741134D01*
X75850020Y-104782455D01*
X75774699Y-104782455D01*
X75697275Y-104743743D01*
X75661130Y-104707599D01*
X75622419Y-104630176D01*
X75622419Y-104415687D01*
X75661130Y-104338263D01*
X75703012Y-104296383D01*
X75713851Y-104280162D01*
X75713851Y-104241893D01*
X75686791Y-104214833D01*
X75648522Y-104214833D01*
X75632301Y-104225672D01*
X75584683Y-104273291D01*
X75580231Y-104279952D01*
X75575316Y-104286286D01*
X75527698Y-104381523D01*
X75527036Y-104383938D01*
X75526225Y-104384750D01*
X75524661Y-104392611D01*
X75522545Y-104400339D01*
X75522907Y-104401427D01*
X75522419Y-104403884D01*
X75411308Y-104403884D01*
X75411308Y-103451503D01*
X75522419Y-103451503D01*
X75522419Y-103641979D01*
X75522907Y-103644435D01*
X75522545Y-103645524D01*
X75524661Y-103653251D01*
X75526225Y-103661113D01*
X75527036Y-103661924D01*
X75527698Y-103664340D01*
X75575316Y-103759577D01*
X75580231Y-103765910D01*
X75584683Y-103772572D01*
X75679921Y-103867810D01*
X75684423Y-103870818D01*
X75685510Y-103872629D01*
X75691048Y-103875245D01*
X75696142Y-103878649D01*
X75698253Y-103878649D01*
X75703149Y-103880962D01*
X75893625Y-103928581D01*
X75899742Y-103928878D01*
X75905752Y-103930074D01*
X76239085Y-103930074D01*
X76245094Y-103928878D01*
X76251212Y-103928581D01*
X76441688Y-103880962D01*
X76446584Y-103878649D01*
X76448695Y-103878649D01*
X76453790Y-103875244D01*
X76459327Y-103872629D01*
X76460412Y-103870820D01*
X76464916Y-103867811D01*
X76560155Y-103772572D01*
X76564605Y-103765912D01*
X76569521Y-103759578D01*
X76617140Y-103664340D01*
X76617801Y-103661924D01*
X76618613Y-103661113D01*
X76620176Y-103653251D01*
X76622293Y-103645524D01*
X76621930Y-103644435D01*
X76622419Y-103641979D01*
X76622419Y-103451503D01*
X76621930Y-103449046D01*
X76622293Y-103447958D01*
X76620176Y-103440230D01*
X76618613Y-103432369D01*
X76617801Y-103431557D01*
X76617140Y-103429142D01*
X76569521Y-103333904D01*
X76564605Y-103327569D01*
X76560155Y-103320910D01*
X76464916Y-103225671D01*
X76460412Y-103222661D01*
X76459327Y-103220853D01*
X76453790Y-103218237D01*
X76448695Y-103214833D01*
X76446584Y-103214833D01*
X76441688Y-103212520D01*
X76251212Y-103164901D01*
X76245094Y-103164603D01*
X76239085Y-103163408D01*
X75905752Y-103163408D01*
X75899742Y-103164603D01*
X75893625Y-103164901D01*
X75703149Y-103212520D01*
X75698253Y-103214833D01*
X75696142Y-103214833D01*
X75691048Y-103218236D01*
X75685510Y-103220853D01*
X75684423Y-103222663D01*
X75679921Y-103225672D01*
X75584683Y-103320910D01*
X75580231Y-103327571D01*
X75575316Y-103333905D01*
X75527698Y-103429142D01*
X75527036Y-103431557D01*
X75526225Y-103432369D01*
X75524661Y-103440230D01*
X75522545Y-103447958D01*
X75522907Y-103449046D01*
X75522419Y-103451503D01*
X75411308Y-103451503D01*
X75411308Y-102261027D01*
X75522419Y-102261027D01*
X75522419Y-102641979D01*
X75522907Y-102644435D01*
X75522545Y-102645524D01*
X75524661Y-102653251D01*
X75526225Y-102661113D01*
X75527036Y-102661924D01*
X75527698Y-102664340D01*
X75575316Y-102759577D01*
X75580231Y-102765910D01*
X75584683Y-102772572D01*
X75632301Y-102820191D01*
X75638967Y-102824645D01*
X75645296Y-102829557D01*
X75740534Y-102877176D01*
X75742949Y-102877837D01*
X75743761Y-102878649D01*
X75751622Y-102880212D01*
X75759350Y-102882329D01*
X75760438Y-102881966D01*
X75762895Y-102882455D01*
X75905752Y-102882455D01*
X75908208Y-102881966D01*
X75909297Y-102882329D01*
X75917024Y-102880212D01*
X75924886Y-102878649D01*
X75925697Y-102877837D01*
X75928113Y-102877176D01*
X76023350Y-102829558D01*
X76029683Y-102824642D01*
X76036345Y-102820191D01*
X76083964Y-102772573D01*
X76088418Y-102765906D01*
X76093330Y-102759578D01*
X76140949Y-102664340D01*
X76141610Y-102661924D01*
X76142422Y-102661113D01*
X76143985Y-102653251D01*
X76146102Y-102645524D01*
X76145739Y-102644435D01*
X76146228Y-102641979D01*
X76146228Y-102595154D01*
X76543746Y-102873417D01*
X76561604Y-102881271D01*
X76599290Y-102874621D01*
X76621235Y-102843270D01*
X76614585Y-102805584D01*
X76601092Y-102791493D01*
X76146228Y-102473088D01*
X76146228Y-102311027D01*
X76572419Y-102311027D01*
X76591553Y-102307221D01*
X76618613Y-102280161D01*
X76618613Y-102241893D01*
X76591553Y-102214833D01*
X76572419Y-102211027D01*
X75572419Y-102211027D01*
X75553285Y-102214833D01*
X75526225Y-102241893D01*
X75522419Y-102261027D01*
X75411308Y-102261027D01*
X75411308Y-101252369D01*
X75523174Y-101252369D01*
X75531476Y-101289727D01*
X75545575Y-101303210D01*
X76003096Y-101594360D01*
X75545575Y-101885510D01*
X75531476Y-101898993D01*
X75523174Y-101936351D01*
X75543719Y-101968636D01*
X75581077Y-101976938D01*
X75599263Y-101969876D01*
X76110788Y-101644360D01*
X76572419Y-101644360D01*
X76591553Y-101640554D01*
X76618613Y-101613494D01*
X76618613Y-101575226D01*
X76591553Y-101548166D01*
X76572419Y-101544360D01*
X76110788Y-101544360D01*
X75599263Y-101218844D01*
X75581077Y-101211782D01*
X75543719Y-101220084D01*
X75523174Y-101252369D01*
X75411308Y-101252369D01*
X75411308Y-100403884D01*
X75522419Y-100403884D01*
X75522419Y-100784836D01*
X75522907Y-100787292D01*
X75522545Y-100788381D01*
X75524661Y-100796108D01*
X75526225Y-100803970D01*
X75527036Y-100804781D01*
X75527698Y-100807197D01*
X75575316Y-100902434D01*
X75580231Y-100908767D01*
X75584683Y-100915429D01*
X75632301Y-100963048D01*
X75638967Y-100967502D01*
X75645296Y-100972414D01*
X75740534Y-101020033D01*
X75742949Y-101020694D01*
X75743761Y-101021506D01*
X75751622Y-101023069D01*
X75759350Y-101025186D01*
X75760438Y-101024823D01*
X75762895Y-101025312D01*
X75905752Y-101025312D01*
X75908208Y-101024823D01*
X75909297Y-101025186D01*
X75917024Y-101023069D01*
X75924886Y-101021506D01*
X75925697Y-101020694D01*
X75928113Y-101020033D01*
X76023350Y-100972415D01*
X76029683Y-100967499D01*
X76036345Y-100963048D01*
X76083964Y-100915430D01*
X76088418Y-100908763D01*
X76093330Y-100902435D01*
X76140949Y-100807197D01*
X76141610Y-100804781D01*
X76142422Y-100803970D01*
X76143985Y-100796108D01*
X76146102Y-100788381D01*
X76145739Y-100787292D01*
X76146228Y-100784836D01*
X76146228Y-100453884D01*
X76572419Y-100453884D01*
X76591553Y-100450078D01*
X76618613Y-100423018D01*
X76618613Y-100384750D01*
X76591553Y-100357690D01*
X76572419Y-100353884D01*
X75572419Y-100353884D01*
X75553285Y-100357690D01*
X75526225Y-100384750D01*
X75522419Y-100403884D01*
X75411308Y-100403884D01*
X75411308Y-100242773D01*
X76733530Y-100242773D01*
X76733530Y-104993566D01*
G37*
G36*
X97449830Y-94442082D02*
G01*
X97485974Y-94478227D01*
X97524686Y-94555650D01*
X97524686Y-94770138D01*
X97485974Y-94847561D01*
X97449828Y-94883708D01*
X97372407Y-94922419D01*
X97205538Y-94922419D01*
X97128115Y-94883708D01*
X97091969Y-94847561D01*
X97053258Y-94770139D01*
X97053258Y-94555650D01*
X97091969Y-94478226D01*
X97128114Y-94442082D01*
X97205538Y-94403371D01*
X97372407Y-94403371D01*
X97449830Y-94442082D01*
G37*
G36*
X99048496Y-91702531D02*
G01*
X98868514Y-91702531D01*
X98744554Y-91661211D01*
X98663398Y-91580054D01*
X98621863Y-91496984D01*
X98577068Y-91317804D01*
X98577068Y-91187257D01*
X98621863Y-91008077D01*
X98663399Y-90925005D01*
X98744552Y-90843851D01*
X98868514Y-90802531D01*
X99048496Y-90802531D01*
X99048496Y-91702531D01*
G37*
G36*
X101449957Y-95133530D02*
G01*
X96842147Y-95133530D01*
X96842147Y-94543847D01*
X96953258Y-94543847D01*
X96953258Y-94781942D01*
X96953746Y-94784398D01*
X96953384Y-94785487D01*
X96955500Y-94793214D01*
X96957064Y-94801076D01*
X96957875Y-94801887D01*
X96958537Y-94804303D01*
X97006155Y-94899540D01*
X97011066Y-94905868D01*
X97015521Y-94912535D01*
X97063140Y-94960155D01*
X97069806Y-94964609D01*
X97076135Y-94969521D01*
X97171373Y-95017140D01*
X97173788Y-95017801D01*
X97174600Y-95018613D01*
X97182461Y-95020176D01*
X97190189Y-95022293D01*
X97191277Y-95021930D01*
X97193734Y-95022419D01*
X97384210Y-95022419D01*
X97386666Y-95021930D01*
X97387755Y-95022293D01*
X97395482Y-95020176D01*
X97403344Y-95018613D01*
X97404155Y-95017801D01*
X97406571Y-95017140D01*
X97501808Y-94969522D01*
X97508135Y-94964611D01*
X97514804Y-94960155D01*
X97562423Y-94912535D01*
X97566876Y-94905869D01*
X97571788Y-94899541D01*
X97619407Y-94804303D01*
X97620068Y-94801887D01*
X97620880Y-94801076D01*
X97622443Y-94793214D01*
X97624560Y-94785487D01*
X97624197Y-94784398D01*
X97624686Y-94781942D01*
X97624686Y-94686704D01*
X97905639Y-94686704D01*
X97905639Y-94781942D01*
X97906127Y-94784398D01*
X97905765Y-94785487D01*
X97907881Y-94793214D01*
X97909445Y-94801076D01*
X97910256Y-94801887D01*
X97910918Y-94804303D01*
X97958536Y-94899540D01*
X97963447Y-94905868D01*
X97967902Y-94912535D01*
X98015521Y-94960155D01*
X98022187Y-94964609D01*
X98028516Y-94969521D01*
X98123754Y-95017140D01*
X98126169Y-95017801D01*
X98126981Y-95018613D01*
X98134842Y-95020176D01*
X98142570Y-95022293D01*
X98143658Y-95021930D01*
X98146115Y-95022419D01*
X98384210Y-95022419D01*
X98392072Y-95020855D01*
X98400021Y-95019853D01*
X98542878Y-94972234D01*
X98559826Y-94962573D01*
X98576941Y-94928344D01*
X98564839Y-94892040D01*
X98530611Y-94874926D01*
X98511255Y-94877366D01*
X98376097Y-94922419D01*
X98157919Y-94922419D01*
X98080496Y-94883708D01*
X98044350Y-94847561D01*
X98005639Y-94770139D01*
X98005639Y-94698507D01*
X98044350Y-94621083D01*
X98080495Y-94584939D01*
X98162679Y-94543847D01*
X99619925Y-94543847D01*
X99619925Y-94781942D01*
X99620413Y-94784398D01*
X99620051Y-94785487D01*
X99622167Y-94793214D01*
X99623731Y-94801076D01*
X99624542Y-94801887D01*
X99625204Y-94804303D01*
X99672822Y-94899540D01*
X99677733Y-94905868D01*
X99682188Y-94912535D01*
X99729807Y-94960155D01*
X99736473Y-94964609D01*
X99742802Y-94969521D01*
X99838040Y-95017140D01*
X99840455Y-95017801D01*
X99841267Y-95018613D01*
X99849128Y-95020176D01*
X99856856Y-95022293D01*
X99857944Y-95021930D01*
X99860401Y-95022419D01*
X100098496Y-95022419D01*
X100100952Y-95021930D01*
X100102041Y-95022293D01*
X100109768Y-95020176D01*
X100117630Y-95018613D01*
X100118441Y-95017801D01*
X100120857Y-95017140D01*
X100216094Y-94969522D01*
X100222421Y-94964611D01*
X100229090Y-94960155D01*
X100276709Y-94912535D01*
X100287547Y-94896314D01*
X100287547Y-94858045D01*
X100260487Y-94830986D01*
X100222218Y-94830986D01*
X100205997Y-94841825D01*
X100164114Y-94883708D01*
X100086693Y-94922419D01*
X99872205Y-94922419D01*
X99794782Y-94883708D01*
X99758636Y-94847561D01*
X99719925Y-94770139D01*
X99719925Y-94686704D01*
X100572306Y-94686704D01*
X100572306Y-94781942D01*
X100572794Y-94784398D01*
X100572432Y-94785487D01*
X100574548Y-94793214D01*
X100576112Y-94801076D01*
X100576923Y-94801887D01*
X100577585Y-94804303D01*
X100625203Y-94899540D01*
X100630114Y-94905868D01*
X100634569Y-94912535D01*
X100682188Y-94960155D01*
X100688854Y-94964609D01*
X100695183Y-94969521D01*
X100790421Y-95017140D01*
X100792836Y-95017801D01*
X100793648Y-95018613D01*
X100801509Y-95020176D01*
X100809237Y-95022293D01*
X100810325Y-95021930D01*
X100812782Y-95022419D01*
X101050877Y-95022419D01*
X101058739Y-95020855D01*
X101066688Y-95019853D01*
X101209545Y-94972234D01*
X101226493Y-94962573D01*
X101243608Y-94928344D01*
X101231506Y-94892040D01*
X101197278Y-94874926D01*
X101177922Y-94877366D01*
X101042764Y-94922419D01*
X100824586Y-94922419D01*
X100747163Y-94883708D01*
X100711017Y-94847561D01*
X100672306Y-94770139D01*
X100672306Y-94698507D01*
X100711017Y-94621083D01*
X100747162Y-94584939D01*
X100830234Y-94543403D01*
X101015385Y-94497116D01*
X101020337Y-94494776D01*
X101025619Y-94493330D01*
X101120856Y-94445712D01*
X101127189Y-94440796D01*
X101133851Y-94436345D01*
X101181470Y-94388727D01*
X101185924Y-94382060D01*
X101190836Y-94375732D01*
X101238455Y-94280494D01*
X101239116Y-94278078D01*
X101239928Y-94277267D01*
X101241491Y-94269405D01*
X101243608Y-94261678D01*
X101243245Y-94260589D01*
X101243734Y-94258133D01*
X101243734Y-94162895D01*
X101243245Y-94160438D01*
X101243608Y-94159350D01*
X101241491Y-94151622D01*
X101239928Y-94143761D01*
X101239116Y-94142949D01*
X101238455Y-94140534D01*
X101190836Y-94045296D01*
X101185924Y-94038967D01*
X101181470Y-94032301D01*
X101133851Y-93984683D01*
X101127189Y-93980231D01*
X101120856Y-93975316D01*
X101025619Y-93927698D01*
X101023203Y-93927036D01*
X101022392Y-93926225D01*
X101014530Y-93924661D01*
X101006803Y-93922545D01*
X101005714Y-93922907D01*
X101003258Y-93922419D01*
X100765163Y-93922419D01*
X100757301Y-93923982D01*
X100749351Y-93924985D01*
X100606495Y-93972604D01*
X100589546Y-93982265D01*
X100572432Y-94016494D01*
X100584533Y-94052798D01*
X100618762Y-94069912D01*
X100638117Y-94067472D01*
X100773276Y-94022419D01*
X100991455Y-94022419D01*
X101068878Y-94061130D01*
X101105022Y-94097275D01*
X101143734Y-94174698D01*
X101143734Y-94246329D01*
X101105022Y-94323752D01*
X101068878Y-94359897D01*
X100985807Y-94401433D01*
X100800655Y-94447721D01*
X100795702Y-94450060D01*
X100790421Y-94451507D01*
X100695183Y-94499126D01*
X100688854Y-94504037D01*
X100682188Y-94508492D01*
X100634570Y-94556111D01*
X100630118Y-94562772D01*
X100625203Y-94569106D01*
X100577585Y-94664343D01*
X100576923Y-94666758D01*
X100576112Y-94667570D01*
X100574548Y-94675431D01*
X100572432Y-94683159D01*
X100572794Y-94684247D01*
X100572306Y-94686704D01*
X99719925Y-94686704D01*
X99719925Y-94555650D01*
X99758636Y-94478226D01*
X99794781Y-94442082D01*
X99872205Y-94403371D01*
X100086693Y-94403371D01*
X100164116Y-94442082D01*
X100205997Y-94483964D01*
X100222218Y-94494803D01*
X100224863Y-94494803D01*
X100226910Y-94496478D01*
X100243660Y-94494803D01*
X100260487Y-94494803D01*
X100262356Y-94492933D01*
X100264989Y-94492670D01*
X100275649Y-94479640D01*
X100287547Y-94467743D01*
X100287547Y-94465099D01*
X100289222Y-94463052D01*
X100291105Y-94443634D01*
X100243486Y-93967444D01*
X100239928Y-93955777D01*
X100239928Y-93953285D01*
X100238834Y-93952191D01*
X100237795Y-93948783D01*
X100224765Y-93938122D01*
X100212868Y-93926225D01*
X100209375Y-93925530D01*
X100208177Y-93924550D01*
X100205695Y-93924798D01*
X100193734Y-93922419D01*
X99717544Y-93922419D01*
X99698410Y-93926225D01*
X99671350Y-93953285D01*
X99671350Y-93991553D01*
X99698410Y-94018613D01*
X99717544Y-94022419D01*
X100148485Y-94022419D01*
X100180068Y-94338255D01*
X100120857Y-94308650D01*
X100118441Y-94307988D01*
X100117630Y-94307177D01*
X100109768Y-94305613D01*
X100102041Y-94303497D01*
X100100952Y-94303859D01*
X100098496Y-94303371D01*
X99860401Y-94303371D01*
X99857944Y-94303859D01*
X99856856Y-94303497D01*
X99849128Y-94305613D01*
X99841267Y-94307177D01*
X99840455Y-94307988D01*
X99838040Y-94308650D01*
X99742802Y-94356269D01*
X99736473Y-94361180D01*
X99729807Y-94365635D01*
X99682189Y-94413254D01*
X99677737Y-94419915D01*
X99672822Y-94426249D01*
X99625204Y-94521486D01*
X99624542Y-94523901D01*
X99623731Y-94524713D01*
X99622167Y-94532574D01*
X99620051Y-94540302D01*
X99620413Y-94541390D01*
X99619925Y-94543847D01*
X98162679Y-94543847D01*
X98163567Y-94543403D01*
X98348718Y-94497116D01*
X98353670Y-94494776D01*
X98358952Y-94493330D01*
X98454189Y-94445712D01*
X98460522Y-94440796D01*
X98467184Y-94436345D01*
X98514803Y-94388727D01*
X98519257Y-94382060D01*
X98524169Y-94375732D01*
X98571788Y-94280494D01*
X98572449Y-94278078D01*
X98573261Y-94277267D01*
X98574824Y-94269405D01*
X98576941Y-94261678D01*
X98576578Y-94260589D01*
X98577067Y-94258133D01*
X98577067Y-94162895D01*
X98576578Y-94160438D01*
X98576941Y-94159350D01*
X98574824Y-94151622D01*
X98573261Y-94143761D01*
X98572449Y-94142949D01*
X98571788Y-94140534D01*
X98524169Y-94045296D01*
X98519257Y-94038967D01*
X98514803Y-94032301D01*
X98467184Y-93984683D01*
X98460522Y-93980231D01*
X98454189Y-93975316D01*
X98358952Y-93927698D01*
X98356536Y-93927036D01*
X98355725Y-93926225D01*
X98347863Y-93924661D01*
X98340136Y-93922545D01*
X98339047Y-93922907D01*
X98336591Y-93922419D01*
X98098496Y-93922419D01*
X98090634Y-93923982D01*
X98082684Y-93924985D01*
X97939828Y-93972604D01*
X97922879Y-93982265D01*
X97905765Y-94016494D01*
X97917866Y-94052798D01*
X97952095Y-94069912D01*
X97971450Y-94067472D01*
X98106609Y-94022419D01*
X98324788Y-94022419D01*
X98402211Y-94061130D01*
X98438355Y-94097275D01*
X98477067Y-94174698D01*
X98477067Y-94246329D01*
X98438355Y-94323752D01*
X98402211Y-94359897D01*
X98319140Y-94401433D01*
X98133988Y-94447721D01*
X98129035Y-94450060D01*
X98123754Y-94451507D01*
X98028516Y-94499126D01*
X98022187Y-94504037D01*
X98015521Y-94508492D01*
X97967903Y-94556111D01*
X97963451Y-94562772D01*
X97958536Y-94569106D01*
X97910918Y-94664343D01*
X97910256Y-94666758D01*
X97909445Y-94667570D01*
X97907881Y-94675431D01*
X97905765Y-94683159D01*
X97906127Y-94684247D01*
X97905639Y-94686704D01*
X97624686Y-94686704D01*
X97624686Y-94400990D01*
X97623490Y-94394980D01*
X97623193Y-94388863D01*
X97575574Y-94198387D01*
X97571932Y-94190679D01*
X97568670Y-94182779D01*
X97473432Y-94039922D01*
X97469934Y-94036417D01*
X97467184Y-94032301D01*
X97419565Y-93984683D01*
X97412903Y-93980231D01*
X97406570Y-93975316D01*
X97311333Y-93927698D01*
X97308917Y-93927036D01*
X97308106Y-93926225D01*
X97300244Y-93924661D01*
X97292517Y-93922545D01*
X97291428Y-93922907D01*
X97288972Y-93922419D01*
X97098496Y-93922419D01*
X97079362Y-93926225D01*
X97052302Y-93953285D01*
X97052302Y-93991553D01*
X97079362Y-94018613D01*
X97098496Y-94022419D01*
X97277169Y-94022419D01*
X97354592Y-94061130D01*
X97392971Y-94099510D01*
X97480660Y-94231041D01*
X97514209Y-94365238D01*
X97508141Y-94361183D01*
X97501808Y-94356268D01*
X97406571Y-94308650D01*
X97404155Y-94307988D01*
X97403344Y-94307177D01*
X97395482Y-94305613D01*
X97387755Y-94303497D01*
X97386666Y-94303859D01*
X97384210Y-94303371D01*
X97193734Y-94303371D01*
X97191277Y-94303859D01*
X97190189Y-94303497D01*
X97182461Y-94305613D01*
X97174600Y-94307177D01*
X97173788Y-94307988D01*
X97171373Y-94308650D01*
X97076135Y-94356269D01*
X97069806Y-94361180D01*
X97063140Y-94365635D01*
X97015522Y-94413254D01*
X97011070Y-94419915D01*
X97006155Y-94426249D01*
X96958537Y-94521486D01*
X96957875Y-94523901D01*
X96957064Y-94524713D01*
X96955500Y-94532574D01*
X96953384Y-94540302D01*
X96953746Y-94541390D01*
X96953258Y-94543847D01*
X96842147Y-94543847D01*
X96842147Y-92438579D01*
X98671350Y-92438579D01*
X98671350Y-92476847D01*
X98698410Y-92503907D01*
X98736678Y-92503907D01*
X98752899Y-92493068D01*
X98792172Y-92453795D01*
X98916133Y-92412475D01*
X98995145Y-92412475D01*
X99119106Y-92453795D01*
X99200259Y-92534948D01*
X99241796Y-92618022D01*
X99286591Y-92797201D01*
X99286591Y-92927748D01*
X99241796Y-93106926D01*
X99200259Y-93190000D01*
X99119105Y-93271154D01*
X98995145Y-93312475D01*
X98916133Y-93312475D01*
X98792173Y-93271155D01*
X98752900Y-93231881D01*
X98736679Y-93221042D01*
X98698410Y-93221042D01*
X98671350Y-93248101D01*
X98671350Y-93286370D01*
X98682188Y-93302591D01*
X98729807Y-93350211D01*
X98731889Y-93351602D01*
X98732403Y-93352629D01*
X98739361Y-93356595D01*
X98746028Y-93361050D01*
X98747177Y-93361050D01*
X98749352Y-93362290D01*
X98892208Y-93409909D01*
X98900158Y-93410911D01*
X98908020Y-93412475D01*
X99003258Y-93412475D01*
X99011120Y-93410911D01*
X99019069Y-93409909D01*
X99161926Y-93362290D01*
X99164101Y-93361050D01*
X99165250Y-93361050D01*
X99171920Y-93356592D01*
X99178874Y-93352629D01*
X99179386Y-93351603D01*
X99181471Y-93350211D01*
X99276709Y-93254972D01*
X99281162Y-93248306D01*
X99286074Y-93241978D01*
X99333693Y-93146740D01*
X99335139Y-93141458D01*
X99337479Y-93136506D01*
X99385098Y-92946030D01*
X99385395Y-92939912D01*
X99386591Y-92933903D01*
X99386591Y-92791046D01*
X99385395Y-92785036D01*
X99385098Y-92778919D01*
X99337479Y-92588443D01*
X99335139Y-92583490D01*
X99333693Y-92578209D01*
X99286074Y-92482971D01*
X99281158Y-92476636D01*
X99276708Y-92469977D01*
X99245310Y-92438579D01*
X99671350Y-92438579D01*
X99671350Y-92476847D01*
X99698410Y-92503907D01*
X99736678Y-92503907D01*
X99752899Y-92493068D01*
X99792172Y-92453795D01*
X99916133Y-92412475D01*
X99995145Y-92412475D01*
X100119106Y-92453795D01*
X100200259Y-92534948D01*
X100241796Y-92618022D01*
X100286591Y-92797201D01*
X100286591Y-92927748D01*
X100241796Y-93106926D01*
X100200259Y-93190000D01*
X100119105Y-93271154D01*
X99995145Y-93312475D01*
X99916133Y-93312475D01*
X99792173Y-93271155D01*
X99752900Y-93231881D01*
X99736679Y-93221042D01*
X99698410Y-93221042D01*
X99671350Y-93248101D01*
X99671350Y-93286370D01*
X99682188Y-93302591D01*
X99729807Y-93350211D01*
X99731889Y-93351602D01*
X99732403Y-93352629D01*
X99739361Y-93356595D01*
X99746028Y-93361050D01*
X99747177Y-93361050D01*
X99749352Y-93362290D01*
X99892208Y-93409909D01*
X99900158Y-93410911D01*
X99908020Y-93412475D01*
X100003258Y-93412475D01*
X100011120Y-93410911D01*
X100019069Y-93409909D01*
X100161926Y-93362290D01*
X100164101Y-93361050D01*
X100165250Y-93361050D01*
X100171920Y-93356592D01*
X100178874Y-93352629D01*
X100179386Y-93351603D01*
X100181471Y-93350211D01*
X100276709Y-93254972D01*
X100281162Y-93248306D01*
X100286074Y-93241978D01*
X100333693Y-93146740D01*
X100335139Y-93141458D01*
X100337479Y-93136506D01*
X100385098Y-92946030D01*
X100385395Y-92939912D01*
X100386591Y-92933903D01*
X100386591Y-92791046D01*
X100385395Y-92785036D01*
X100385098Y-92778919D01*
X100337479Y-92588443D01*
X100335139Y-92583490D01*
X100333693Y-92578209D01*
X100286074Y-92482971D01*
X100281158Y-92476636D01*
X100276708Y-92469977D01*
X100181470Y-92374739D01*
X100179387Y-92373347D01*
X100178874Y-92372321D01*
X100171913Y-92368353D01*
X100165249Y-92363900D01*
X100164101Y-92363900D01*
X100161926Y-92362660D01*
X100150739Y-92358931D01*
X100572432Y-92358931D01*
X100574872Y-92378286D01*
X100908205Y-93378286D01*
X100917866Y-93395234D01*
X100921207Y-93396904D01*
X100922879Y-93400248D01*
X100937921Y-93405261D01*
X100952095Y-93412349D01*
X100955638Y-93411167D01*
X100959183Y-93412349D01*
X100973362Y-93405259D01*
X100988399Y-93400247D01*
X100990069Y-93396906D01*
X100993412Y-93395235D01*
X101003073Y-93378286D01*
X101336406Y-92378287D01*
X101338846Y-92358931D01*
X101321732Y-92324703D01*
X101285428Y-92312601D01*
X101251199Y-92329716D01*
X101241538Y-92346664D01*
X100955639Y-93204361D01*
X100669740Y-92346664D01*
X100660079Y-92329715D01*
X100625850Y-92312601D01*
X100589546Y-92324702D01*
X100572432Y-92358931D01*
X100150739Y-92358931D01*
X100019069Y-92315041D01*
X100011120Y-92314038D01*
X100003258Y-92312475D01*
X99908020Y-92312475D01*
X99900158Y-92314038D01*
X99892208Y-92315041D01*
X99749352Y-92362660D01*
X99747177Y-92363900D01*
X99746028Y-92363900D01*
X99739361Y-92368354D01*
X99732403Y-92372321D01*
X99731889Y-92373347D01*
X99729807Y-92374739D01*
X99682189Y-92422358D01*
X99671350Y-92438579D01*
X99245310Y-92438579D01*
X99181470Y-92374739D01*
X99179387Y-92373347D01*
X99178874Y-92372321D01*
X99171913Y-92368353D01*
X99165249Y-92363900D01*
X99164101Y-92363900D01*
X99161926Y-92362660D01*
X99019069Y-92315041D01*
X99011120Y-92314038D01*
X99003258Y-92312475D01*
X98908020Y-92312475D01*
X98900158Y-92314038D01*
X98892208Y-92315041D01*
X98749352Y-92362660D01*
X98747177Y-92363900D01*
X98746028Y-92363900D01*
X98739361Y-92368354D01*
X98732403Y-92372321D01*
X98731889Y-92373347D01*
X98729807Y-92374739D01*
X98682189Y-92422358D01*
X98671350Y-92438579D01*
X96842147Y-92438579D01*
X96842147Y-91181102D01*
X98477068Y-91181102D01*
X98477068Y-91323959D01*
X98478263Y-91329968D01*
X98478561Y-91336086D01*
X98526180Y-91526562D01*
X98528519Y-91531514D01*
X98529966Y-91536796D01*
X98577584Y-91632033D01*
X98582495Y-91638361D01*
X98586950Y-91645028D01*
X98682189Y-91740267D01*
X98684270Y-91741657D01*
X98684784Y-91742685D01*
X98691749Y-91746655D01*
X98698410Y-91751106D01*
X98699558Y-91751106D01*
X98701733Y-91752346D01*
X98844589Y-91799965D01*
X98852539Y-91800967D01*
X98860401Y-91802531D01*
X99098496Y-91802531D01*
X99117630Y-91798725D01*
X99144690Y-91771665D01*
X99148496Y-91752531D01*
X99148496Y-90752531D01*
X99524687Y-90752531D01*
X99524687Y-91752531D01*
X99528493Y-91771665D01*
X99533347Y-91776519D01*
X99535155Y-91783146D01*
X99546399Y-91789571D01*
X99555553Y-91798725D01*
X99562419Y-91798725D01*
X99568381Y-91802132D01*
X99580874Y-91798725D01*
X99593821Y-91798725D01*
X99598675Y-91793870D01*
X99605302Y-91792063D01*
X99618099Y-91777338D01*
X100096115Y-90940809D01*
X100096115Y-91752531D01*
X100099921Y-91771665D01*
X100126981Y-91798725D01*
X100165249Y-91798725D01*
X100192309Y-91771665D01*
X100196115Y-91752531D01*
X100196115Y-91323959D01*
X100524687Y-91323959D01*
X100524687Y-91657292D01*
X100528493Y-91676426D01*
X100539331Y-91692647D01*
X100586950Y-91740267D01*
X100589032Y-91741658D01*
X100589546Y-91742685D01*
X100596504Y-91746651D01*
X100603171Y-91751106D01*
X100604320Y-91751106D01*
X100606495Y-91752346D01*
X100749351Y-91799965D01*
X100757301Y-91800967D01*
X100765163Y-91802531D01*
X100860401Y-91802531D01*
X100868263Y-91800967D01*
X100876212Y-91799965D01*
X101019069Y-91752346D01*
X101021244Y-91751106D01*
X101022393Y-91751106D01*
X101029063Y-91746648D01*
X101036017Y-91742685D01*
X101036529Y-91741659D01*
X101038614Y-91740267D01*
X101133852Y-91645028D01*
X101138305Y-91638362D01*
X101143217Y-91632034D01*
X101190836Y-91536796D01*
X101192282Y-91531514D01*
X101194622Y-91526562D01*
X101242241Y-91336086D01*
X101242538Y-91329968D01*
X101243734Y-91323959D01*
X101243734Y-91181102D01*
X101242538Y-91175092D01*
X101242241Y-91168975D01*
X101194622Y-90978499D01*
X101192282Y-90973546D01*
X101190836Y-90968265D01*
X101143217Y-90873027D01*
X101138301Y-90866692D01*
X101133851Y-90860033D01*
X101038613Y-90764795D01*
X101036530Y-90763403D01*
X101036017Y-90762377D01*
X101029056Y-90758409D01*
X101022392Y-90753956D01*
X101021244Y-90753956D01*
X101019069Y-90752716D01*
X100876212Y-90705097D01*
X100868263Y-90704094D01*
X100860401Y-90702531D01*
X100717544Y-90702531D01*
X100715087Y-90703019D01*
X100713999Y-90702657D01*
X100706271Y-90704773D01*
X100698410Y-90706337D01*
X100697598Y-90707148D01*
X100695183Y-90707810D01*
X100599945Y-90755429D01*
X100584533Y-90767390D01*
X100572432Y-90803695D01*
X100589546Y-90837923D01*
X100625851Y-90850024D01*
X100644667Y-90844871D01*
X100729348Y-90802531D01*
X100852288Y-90802531D01*
X100976249Y-90843851D01*
X101057402Y-90925004D01*
X101098939Y-91008078D01*
X101143734Y-91187257D01*
X101143734Y-91317804D01*
X101098939Y-91496982D01*
X101057402Y-91580056D01*
X100976248Y-91661210D01*
X100852288Y-91702531D01*
X100773276Y-91702531D01*
X100649316Y-91661211D01*
X100624687Y-91636581D01*
X100624687Y-91373959D01*
X100765163Y-91373959D01*
X100784297Y-91370153D01*
X100811357Y-91343093D01*
X100811357Y-91304825D01*
X100784297Y-91277765D01*
X100765163Y-91273959D01*
X100574687Y-91273959D01*
X100555553Y-91277765D01*
X100528493Y-91304825D01*
X100524687Y-91323959D01*
X100196115Y-91323959D01*
X100196115Y-90752531D01*
X100192309Y-90733397D01*
X100187454Y-90728542D01*
X100185647Y-90721916D01*
X100174402Y-90715490D01*
X100165249Y-90706337D01*
X100158383Y-90706337D01*
X100152421Y-90702930D01*
X100139929Y-90706337D01*
X100126981Y-90706337D01*
X100122125Y-90711192D01*
X100115501Y-90712999D01*
X100102703Y-90727724D01*
X99624687Y-91564252D01*
X99624687Y-90752531D01*
X99620881Y-90733397D01*
X99593821Y-90706337D01*
X99555553Y-90706337D01*
X99528493Y-90733397D01*
X99524687Y-90752531D01*
X99148496Y-90752531D01*
X99144690Y-90733397D01*
X99117630Y-90706337D01*
X99098496Y-90702531D01*
X98860401Y-90702531D01*
X98852539Y-90704094D01*
X98844589Y-90705097D01*
X98701733Y-90752716D01*
X98699558Y-90753956D01*
X98698410Y-90753956D01*
X98691749Y-90758406D01*
X98684784Y-90762377D01*
X98684270Y-90763404D01*
X98682189Y-90764795D01*
X98586951Y-90860033D01*
X98582499Y-90866694D01*
X98577584Y-90873028D01*
X98529966Y-90968265D01*
X98528519Y-90973546D01*
X98526180Y-90978499D01*
X98478561Y-91168975D01*
X98478263Y-91175092D01*
X98477068Y-91181102D01*
X96842147Y-91181102D01*
X96842147Y-90591420D01*
X101449957Y-90591420D01*
X101449957Y-95133530D01*
G37*
D11*
X114211904Y-106054819D02*
X114211904Y-106864342D01*
X114211904Y-106864342D02*
X114164285Y-106959580D01*
X114164285Y-106959580D02*
X114116666Y-107007200D01*
X114116666Y-107007200D02*
X114021428Y-107054819D01*
X114021428Y-107054819D02*
X113830952Y-107054819D01*
X113830952Y-107054819D02*
X113735714Y-107007200D01*
X113735714Y-107007200D02*
X113688095Y-106959580D01*
X113688095Y-106959580D02*
X113640476Y-106864342D01*
X113640476Y-106864342D02*
X113640476Y-106054819D01*
X112735714Y-106388152D02*
X112735714Y-107054819D01*
X112973809Y-106007200D02*
X113211904Y-106721485D01*
X113211904Y-106721485D02*
X112592857Y-106721485D01*
X152366666Y-98554819D02*
X152699999Y-98078628D01*
X152938094Y-98554819D02*
X152938094Y-97554819D01*
X152938094Y-97554819D02*
X152557142Y-97554819D01*
X152557142Y-97554819D02*
X152461904Y-97602438D01*
X152461904Y-97602438D02*
X152414285Y-97650057D01*
X152414285Y-97650057D02*
X152366666Y-97745295D01*
X152366666Y-97745295D02*
X152366666Y-97888152D01*
X152366666Y-97888152D02*
X152414285Y-97983390D01*
X152414285Y-97983390D02*
X152461904Y-98031009D01*
X152461904Y-98031009D02*
X152557142Y-98078628D01*
X152557142Y-98078628D02*
X152938094Y-98078628D01*
X151509523Y-97888152D02*
X151509523Y-98554819D01*
X151747618Y-97507200D02*
X151985713Y-98221485D01*
X151985713Y-98221485D02*
X151366666Y-98221485D01*
D10*
X147557225Y-87659062D02*
X147223892Y-87659062D01*
X147081035Y-88182872D02*
X147557225Y-88182872D01*
X147557225Y-88182872D02*
X147557225Y-87182872D01*
X147557225Y-87182872D02*
X147081035Y-87182872D01*
X146700082Y-87278110D02*
X146652463Y-87230491D01*
X146652463Y-87230491D02*
X146557225Y-87182872D01*
X146557225Y-87182872D02*
X146319130Y-87182872D01*
X146319130Y-87182872D02*
X146223892Y-87230491D01*
X146223892Y-87230491D02*
X146176273Y-87278110D01*
X146176273Y-87278110D02*
X146128654Y-87373348D01*
X146128654Y-87373348D02*
X146128654Y-87468586D01*
X146128654Y-87468586D02*
X146176273Y-87611443D01*
X146176273Y-87611443D02*
X146747701Y-88182872D01*
X146747701Y-88182872D02*
X146128654Y-88182872D01*
X145747701Y-87278110D02*
X145700082Y-87230491D01*
X145700082Y-87230491D02*
X145604844Y-87182872D01*
X145604844Y-87182872D02*
X145366749Y-87182872D01*
X145366749Y-87182872D02*
X145271511Y-87230491D01*
X145271511Y-87230491D02*
X145223892Y-87278110D01*
X145223892Y-87278110D02*
X145176273Y-87373348D01*
X145176273Y-87373348D02*
X145176273Y-87468586D01*
X145176273Y-87468586D02*
X145223892Y-87611443D01*
X145223892Y-87611443D02*
X145795320Y-88182872D01*
X145795320Y-88182872D02*
X145176273Y-88182872D01*
X144747701Y-87801919D02*
X143985797Y-87801919D01*
X143081035Y-87516205D02*
X143081035Y-88182872D01*
X143319130Y-87135253D02*
X143557225Y-87849538D01*
X143557225Y-87849538D02*
X142938178Y-87849538D01*
X142366749Y-87182872D02*
X142271511Y-87182872D01*
X142271511Y-87182872D02*
X142176273Y-87230491D01*
X142176273Y-87230491D02*
X142128654Y-87278110D01*
X142128654Y-87278110D02*
X142081035Y-87373348D01*
X142081035Y-87373348D02*
X142033416Y-87563824D01*
X142033416Y-87563824D02*
X142033416Y-87801919D01*
X142033416Y-87801919D02*
X142081035Y-87992395D01*
X142081035Y-87992395D02*
X142128654Y-88087633D01*
X142128654Y-88087633D02*
X142176273Y-88135253D01*
X142176273Y-88135253D02*
X142271511Y-88182872D01*
X142271511Y-88182872D02*
X142366749Y-88182872D01*
X142366749Y-88182872D02*
X142461987Y-88135253D01*
X142461987Y-88135253D02*
X142509606Y-88087633D01*
X142509606Y-88087633D02*
X142557225Y-87992395D01*
X142557225Y-87992395D02*
X142604844Y-87801919D01*
X142604844Y-87801919D02*
X142604844Y-87563824D01*
X142604844Y-87563824D02*
X142557225Y-87373348D01*
X142557225Y-87373348D02*
X142509606Y-87278110D01*
X142509606Y-87278110D02*
X142461987Y-87230491D01*
X142461987Y-87230491D02*
X142366749Y-87182872D01*
X141414368Y-87182872D02*
X141319130Y-87182872D01*
X141319130Y-87182872D02*
X141223892Y-87230491D01*
X141223892Y-87230491D02*
X141176273Y-87278110D01*
X141176273Y-87278110D02*
X141128654Y-87373348D01*
X141128654Y-87373348D02*
X141081035Y-87563824D01*
X141081035Y-87563824D02*
X141081035Y-87801919D01*
X141081035Y-87801919D02*
X141128654Y-87992395D01*
X141128654Y-87992395D02*
X141176273Y-88087633D01*
X141176273Y-88087633D02*
X141223892Y-88135253D01*
X141223892Y-88135253D02*
X141319130Y-88182872D01*
X141319130Y-88182872D02*
X141414368Y-88182872D01*
X141414368Y-88182872D02*
X141509606Y-88135253D01*
X141509606Y-88135253D02*
X141557225Y-88087633D01*
X141557225Y-88087633D02*
X141604844Y-87992395D01*
X141604844Y-87992395D02*
X141652463Y-87801919D01*
X141652463Y-87801919D02*
X141652463Y-87563824D01*
X141652463Y-87563824D02*
X141604844Y-87373348D01*
X141604844Y-87373348D02*
X141557225Y-87278110D01*
X141557225Y-87278110D02*
X141509606Y-87230491D01*
X141509606Y-87230491D02*
X141414368Y-87182872D01*
X140652463Y-88182872D02*
X140652463Y-87182872D01*
X140652463Y-87182872D02*
X140319130Y-87897157D01*
X140319130Y-87897157D02*
X139985797Y-87182872D01*
X139985797Y-87182872D02*
X139985797Y-88182872D01*
X139557225Y-87278110D02*
X139509606Y-87230491D01*
X139509606Y-87230491D02*
X139414368Y-87182872D01*
X139414368Y-87182872D02*
X139176273Y-87182872D01*
X139176273Y-87182872D02*
X139081035Y-87230491D01*
X139081035Y-87230491D02*
X139033416Y-87278110D01*
X139033416Y-87278110D02*
X138985797Y-87373348D01*
X138985797Y-87373348D02*
X138985797Y-87468586D01*
X138985797Y-87468586D02*
X139033416Y-87611443D01*
X139033416Y-87611443D02*
X139604844Y-88182872D01*
X139604844Y-88182872D02*
X138985797Y-88182872D01*
X138604844Y-87278110D02*
X138557225Y-87230491D01*
X138557225Y-87230491D02*
X138461987Y-87182872D01*
X138461987Y-87182872D02*
X138223892Y-87182872D01*
X138223892Y-87182872D02*
X138128654Y-87230491D01*
X138128654Y-87230491D02*
X138081035Y-87278110D01*
X138081035Y-87278110D02*
X138033416Y-87373348D01*
X138033416Y-87373348D02*
X138033416Y-87468586D01*
X138033416Y-87468586D02*
X138081035Y-87611443D01*
X138081035Y-87611443D02*
X138652463Y-88182872D01*
X138652463Y-88182872D02*
X138033416Y-88182872D01*
X137652463Y-88135253D02*
X137509606Y-88182872D01*
X137509606Y-88182872D02*
X137271511Y-88182872D01*
X137271511Y-88182872D02*
X137176273Y-88135253D01*
X137176273Y-88135253D02*
X137128654Y-88087633D01*
X137128654Y-88087633D02*
X137081035Y-87992395D01*
X137081035Y-87992395D02*
X137081035Y-87897157D01*
X137081035Y-87897157D02*
X137128654Y-87801919D01*
X137128654Y-87801919D02*
X137176273Y-87754300D01*
X137176273Y-87754300D02*
X137271511Y-87706681D01*
X137271511Y-87706681D02*
X137461987Y-87659062D01*
X137461987Y-87659062D02*
X137557225Y-87611443D01*
X137557225Y-87611443D02*
X137604844Y-87563824D01*
X137604844Y-87563824D02*
X137652463Y-87468586D01*
X137652463Y-87468586D02*
X137652463Y-87373348D01*
X137652463Y-87373348D02*
X137604844Y-87278110D01*
X137604844Y-87278110D02*
X137557225Y-87230491D01*
X137557225Y-87230491D02*
X137461987Y-87182872D01*
X137461987Y-87182872D02*
X137223892Y-87182872D01*
X137223892Y-87182872D02*
X137081035Y-87230491D01*
X136700082Y-87278110D02*
X136652463Y-87230491D01*
X136652463Y-87230491D02*
X136557225Y-87182872D01*
X136557225Y-87182872D02*
X136319130Y-87182872D01*
X136319130Y-87182872D02*
X136223892Y-87230491D01*
X136223892Y-87230491D02*
X136176273Y-87278110D01*
X136176273Y-87278110D02*
X136128654Y-87373348D01*
X136128654Y-87373348D02*
X136128654Y-87468586D01*
X136128654Y-87468586D02*
X136176273Y-87611443D01*
X136176273Y-87611443D02*
X136747701Y-88182872D01*
X136747701Y-88182872D02*
X136128654Y-88182872D01*
D11*
X127116666Y-93709580D02*
X127164285Y-93757200D01*
X127164285Y-93757200D02*
X127307142Y-93804819D01*
X127307142Y-93804819D02*
X127402380Y-93804819D01*
X127402380Y-93804819D02*
X127545237Y-93757200D01*
X127545237Y-93757200D02*
X127640475Y-93661961D01*
X127640475Y-93661961D02*
X127688094Y-93566723D01*
X127688094Y-93566723D02*
X127735713Y-93376247D01*
X127735713Y-93376247D02*
X127735713Y-93233390D01*
X127735713Y-93233390D02*
X127688094Y-93042914D01*
X127688094Y-93042914D02*
X127640475Y-92947676D01*
X127640475Y-92947676D02*
X127545237Y-92852438D01*
X127545237Y-92852438D02*
X127402380Y-92804819D01*
X127402380Y-92804819D02*
X127307142Y-92804819D01*
X127307142Y-92804819D02*
X127164285Y-92852438D01*
X127164285Y-92852438D02*
X127116666Y-92900057D01*
X126783332Y-92804819D02*
X126164285Y-92804819D01*
X126164285Y-92804819D02*
X126497618Y-93185771D01*
X126497618Y-93185771D02*
X126354761Y-93185771D01*
X126354761Y-93185771D02*
X126259523Y-93233390D01*
X126259523Y-93233390D02*
X126211904Y-93281009D01*
X126211904Y-93281009D02*
X126164285Y-93376247D01*
X126164285Y-93376247D02*
X126164285Y-93614342D01*
X126164285Y-93614342D02*
X126211904Y-93709580D01*
X126211904Y-93709580D02*
X126259523Y-93757200D01*
X126259523Y-93757200D02*
X126354761Y-93804819D01*
X126354761Y-93804819D02*
X126640475Y-93804819D01*
X126640475Y-93804819D02*
X126735713Y-93757200D01*
X126735713Y-93757200D02*
X126783332Y-93709580D01*
X151042857Y-123124819D02*
X151376190Y-122648628D01*
X151614285Y-123124819D02*
X151614285Y-122124819D01*
X151614285Y-122124819D02*
X151233333Y-122124819D01*
X151233333Y-122124819D02*
X151138095Y-122172438D01*
X151138095Y-122172438D02*
X151090476Y-122220057D01*
X151090476Y-122220057D02*
X151042857Y-122315295D01*
X151042857Y-122315295D02*
X151042857Y-122458152D01*
X151042857Y-122458152D02*
X151090476Y-122553390D01*
X151090476Y-122553390D02*
X151138095Y-122601009D01*
X151138095Y-122601009D02*
X151233333Y-122648628D01*
X151233333Y-122648628D02*
X151614285Y-122648628D01*
X150661904Y-122220057D02*
X150614285Y-122172438D01*
X150614285Y-122172438D02*
X150519047Y-122124819D01*
X150519047Y-122124819D02*
X150280952Y-122124819D01*
X150280952Y-122124819D02*
X150185714Y-122172438D01*
X150185714Y-122172438D02*
X150138095Y-122220057D01*
X150138095Y-122220057D02*
X150090476Y-122315295D01*
X150090476Y-122315295D02*
X150090476Y-122410533D01*
X150090476Y-122410533D02*
X150138095Y-122553390D01*
X150138095Y-122553390D02*
X150709523Y-123124819D01*
X150709523Y-123124819D02*
X150090476Y-123124819D01*
X149233333Y-122124819D02*
X149423809Y-122124819D01*
X149423809Y-122124819D02*
X149519047Y-122172438D01*
X149519047Y-122172438D02*
X149566666Y-122220057D01*
X149566666Y-122220057D02*
X149661904Y-122362914D01*
X149661904Y-122362914D02*
X149709523Y-122553390D01*
X149709523Y-122553390D02*
X149709523Y-122934342D01*
X149709523Y-122934342D02*
X149661904Y-123029580D01*
X149661904Y-123029580D02*
X149614285Y-123077200D01*
X149614285Y-123077200D02*
X149519047Y-123124819D01*
X149519047Y-123124819D02*
X149328571Y-123124819D01*
X149328571Y-123124819D02*
X149233333Y-123077200D01*
X149233333Y-123077200D02*
X149185714Y-123029580D01*
X149185714Y-123029580D02*
X149138095Y-122934342D01*
X149138095Y-122934342D02*
X149138095Y-122696247D01*
X149138095Y-122696247D02*
X149185714Y-122601009D01*
X149185714Y-122601009D02*
X149233333Y-122553390D01*
X149233333Y-122553390D02*
X149328571Y-122505771D01*
X149328571Y-122505771D02*
X149519047Y-122505771D01*
X149519047Y-122505771D02*
X149614285Y-122553390D01*
X149614285Y-122553390D02*
X149661904Y-122601009D01*
X149661904Y-122601009D02*
X149709523Y-122696247D01*
X86961904Y-97554819D02*
X86961904Y-98364342D01*
X86961904Y-98364342D02*
X86914285Y-98459580D01*
X86914285Y-98459580D02*
X86866666Y-98507200D01*
X86866666Y-98507200D02*
X86771428Y-98554819D01*
X86771428Y-98554819D02*
X86580952Y-98554819D01*
X86580952Y-98554819D02*
X86485714Y-98507200D01*
X86485714Y-98507200D02*
X86438095Y-98459580D01*
X86438095Y-98459580D02*
X86390476Y-98364342D01*
X86390476Y-98364342D02*
X86390476Y-97554819D01*
X86009523Y-97554819D02*
X85342857Y-97554819D01*
X85342857Y-97554819D02*
X85771428Y-98554819D01*
X152366666Y-94054819D02*
X152699999Y-93578628D01*
X152938094Y-94054819D02*
X152938094Y-93054819D01*
X152938094Y-93054819D02*
X152557142Y-93054819D01*
X152557142Y-93054819D02*
X152461904Y-93102438D01*
X152461904Y-93102438D02*
X152414285Y-93150057D01*
X152414285Y-93150057D02*
X152366666Y-93245295D01*
X152366666Y-93245295D02*
X152366666Y-93388152D01*
X152366666Y-93388152D02*
X152414285Y-93483390D01*
X152414285Y-93483390D02*
X152461904Y-93531009D01*
X152461904Y-93531009D02*
X152557142Y-93578628D01*
X152557142Y-93578628D02*
X152938094Y-93578628D01*
X151414285Y-94054819D02*
X151985713Y-94054819D01*
X151699999Y-94054819D02*
X151699999Y-93054819D01*
X151699999Y-93054819D02*
X151795237Y-93197676D01*
X151795237Y-93197676D02*
X151890475Y-93292914D01*
X151890475Y-93292914D02*
X151985713Y-93340533D01*
X130616666Y-87959580D02*
X130664285Y-88007200D01*
X130664285Y-88007200D02*
X130807142Y-88054819D01*
X130807142Y-88054819D02*
X130902380Y-88054819D01*
X130902380Y-88054819D02*
X131045237Y-88007200D01*
X131045237Y-88007200D02*
X131140475Y-87911961D01*
X131140475Y-87911961D02*
X131188094Y-87816723D01*
X131188094Y-87816723D02*
X131235713Y-87626247D01*
X131235713Y-87626247D02*
X131235713Y-87483390D01*
X131235713Y-87483390D02*
X131188094Y-87292914D01*
X131188094Y-87292914D02*
X131140475Y-87197676D01*
X131140475Y-87197676D02*
X131045237Y-87102438D01*
X131045237Y-87102438D02*
X130902380Y-87054819D01*
X130902380Y-87054819D02*
X130807142Y-87054819D01*
X130807142Y-87054819D02*
X130664285Y-87102438D01*
X130664285Y-87102438D02*
X130616666Y-87150057D01*
X129711904Y-87054819D02*
X130188094Y-87054819D01*
X130188094Y-87054819D02*
X130235713Y-87531009D01*
X130235713Y-87531009D02*
X130188094Y-87483390D01*
X130188094Y-87483390D02*
X130092856Y-87435771D01*
X130092856Y-87435771D02*
X129854761Y-87435771D01*
X129854761Y-87435771D02*
X129759523Y-87483390D01*
X129759523Y-87483390D02*
X129711904Y-87531009D01*
X129711904Y-87531009D02*
X129664285Y-87626247D01*
X129664285Y-87626247D02*
X129664285Y-87864342D01*
X129664285Y-87864342D02*
X129711904Y-87959580D01*
X129711904Y-87959580D02*
X129759523Y-88007200D01*
X129759523Y-88007200D02*
X129854761Y-88054819D01*
X129854761Y-88054819D02*
X130092856Y-88054819D01*
X130092856Y-88054819D02*
X130188094Y-88007200D01*
X130188094Y-88007200D02*
X130235713Y-87959580D01*
X97449580Y-106977142D02*
X97497200Y-106929523D01*
X97497200Y-106929523D02*
X97544819Y-106786666D01*
X97544819Y-106786666D02*
X97544819Y-106691428D01*
X97544819Y-106691428D02*
X97497200Y-106548571D01*
X97497200Y-106548571D02*
X97401961Y-106453333D01*
X97401961Y-106453333D02*
X97306723Y-106405714D01*
X97306723Y-106405714D02*
X97116247Y-106358095D01*
X97116247Y-106358095D02*
X96973390Y-106358095D01*
X96973390Y-106358095D02*
X96782914Y-106405714D01*
X96782914Y-106405714D02*
X96687676Y-106453333D01*
X96687676Y-106453333D02*
X96592438Y-106548571D01*
X96592438Y-106548571D02*
X96544819Y-106691428D01*
X96544819Y-106691428D02*
X96544819Y-106786666D01*
X96544819Y-106786666D02*
X96592438Y-106929523D01*
X96592438Y-106929523D02*
X96640057Y-106977142D01*
X96640057Y-107358095D02*
X96592438Y-107405714D01*
X96592438Y-107405714D02*
X96544819Y-107500952D01*
X96544819Y-107500952D02*
X96544819Y-107739047D01*
X96544819Y-107739047D02*
X96592438Y-107834285D01*
X96592438Y-107834285D02*
X96640057Y-107881904D01*
X96640057Y-107881904D02*
X96735295Y-107929523D01*
X96735295Y-107929523D02*
X96830533Y-107929523D01*
X96830533Y-107929523D02*
X96973390Y-107881904D01*
X96973390Y-107881904D02*
X97544819Y-107310476D01*
X97544819Y-107310476D02*
X97544819Y-107929523D01*
X96544819Y-108834285D02*
X96544819Y-108358095D01*
X96544819Y-108358095D02*
X97021009Y-108310476D01*
X97021009Y-108310476D02*
X96973390Y-108358095D01*
X96973390Y-108358095D02*
X96925771Y-108453333D01*
X96925771Y-108453333D02*
X96925771Y-108691428D01*
X96925771Y-108691428D02*
X96973390Y-108786666D01*
X96973390Y-108786666D02*
X97021009Y-108834285D01*
X97021009Y-108834285D02*
X97116247Y-108881904D01*
X97116247Y-108881904D02*
X97354342Y-108881904D01*
X97354342Y-108881904D02*
X97449580Y-108834285D01*
X97449580Y-108834285D02*
X97497200Y-108786666D01*
X97497200Y-108786666D02*
X97544819Y-108691428D01*
X97544819Y-108691428D02*
X97544819Y-108453333D01*
X97544819Y-108453333D02*
X97497200Y-108358095D01*
X97497200Y-108358095D02*
X97449580Y-108310476D01*
X142961904Y-127554819D02*
X142961904Y-128364342D01*
X142961904Y-128364342D02*
X142914285Y-128459580D01*
X142914285Y-128459580D02*
X142866666Y-128507200D01*
X142866666Y-128507200D02*
X142771428Y-128554819D01*
X142771428Y-128554819D02*
X142580952Y-128554819D01*
X142580952Y-128554819D02*
X142485714Y-128507200D01*
X142485714Y-128507200D02*
X142438095Y-128459580D01*
X142438095Y-128459580D02*
X142390476Y-128364342D01*
X142390476Y-128364342D02*
X142390476Y-127554819D01*
X141961904Y-127650057D02*
X141914285Y-127602438D01*
X141914285Y-127602438D02*
X141819047Y-127554819D01*
X141819047Y-127554819D02*
X141580952Y-127554819D01*
X141580952Y-127554819D02*
X141485714Y-127602438D01*
X141485714Y-127602438D02*
X141438095Y-127650057D01*
X141438095Y-127650057D02*
X141390476Y-127745295D01*
X141390476Y-127745295D02*
X141390476Y-127840533D01*
X141390476Y-127840533D02*
X141438095Y-127983390D01*
X141438095Y-127983390D02*
X142009523Y-128554819D01*
X142009523Y-128554819D02*
X141390476Y-128554819D01*
X81989580Y-87957142D02*
X82037200Y-87909523D01*
X82037200Y-87909523D02*
X82084819Y-87766666D01*
X82084819Y-87766666D02*
X82084819Y-87671428D01*
X82084819Y-87671428D02*
X82037200Y-87528571D01*
X82037200Y-87528571D02*
X81941961Y-87433333D01*
X81941961Y-87433333D02*
X81846723Y-87385714D01*
X81846723Y-87385714D02*
X81656247Y-87338095D01*
X81656247Y-87338095D02*
X81513390Y-87338095D01*
X81513390Y-87338095D02*
X81322914Y-87385714D01*
X81322914Y-87385714D02*
X81227676Y-87433333D01*
X81227676Y-87433333D02*
X81132438Y-87528571D01*
X81132438Y-87528571D02*
X81084819Y-87671428D01*
X81084819Y-87671428D02*
X81084819Y-87766666D01*
X81084819Y-87766666D02*
X81132438Y-87909523D01*
X81132438Y-87909523D02*
X81180057Y-87957142D01*
X82084819Y-88909523D02*
X82084819Y-88338095D01*
X82084819Y-88623809D02*
X81084819Y-88623809D01*
X81084819Y-88623809D02*
X81227676Y-88528571D01*
X81227676Y-88528571D02*
X81322914Y-88433333D01*
X81322914Y-88433333D02*
X81370533Y-88338095D01*
X81513390Y-89480952D02*
X81465771Y-89385714D01*
X81465771Y-89385714D02*
X81418152Y-89338095D01*
X81418152Y-89338095D02*
X81322914Y-89290476D01*
X81322914Y-89290476D02*
X81275295Y-89290476D01*
X81275295Y-89290476D02*
X81180057Y-89338095D01*
X81180057Y-89338095D02*
X81132438Y-89385714D01*
X81132438Y-89385714D02*
X81084819Y-89480952D01*
X81084819Y-89480952D02*
X81084819Y-89671428D01*
X81084819Y-89671428D02*
X81132438Y-89766666D01*
X81132438Y-89766666D02*
X81180057Y-89814285D01*
X81180057Y-89814285D02*
X81275295Y-89861904D01*
X81275295Y-89861904D02*
X81322914Y-89861904D01*
X81322914Y-89861904D02*
X81418152Y-89814285D01*
X81418152Y-89814285D02*
X81465771Y-89766666D01*
X81465771Y-89766666D02*
X81513390Y-89671428D01*
X81513390Y-89671428D02*
X81513390Y-89480952D01*
X81513390Y-89480952D02*
X81561009Y-89385714D01*
X81561009Y-89385714D02*
X81608628Y-89338095D01*
X81608628Y-89338095D02*
X81703866Y-89290476D01*
X81703866Y-89290476D02*
X81894342Y-89290476D01*
X81894342Y-89290476D02*
X81989580Y-89338095D01*
X81989580Y-89338095D02*
X82037200Y-89385714D01*
X82037200Y-89385714D02*
X82084819Y-89480952D01*
X82084819Y-89480952D02*
X82084819Y-89671428D01*
X82084819Y-89671428D02*
X82037200Y-89766666D01*
X82037200Y-89766666D02*
X81989580Y-89814285D01*
X81989580Y-89814285D02*
X81894342Y-89861904D01*
X81894342Y-89861904D02*
X81703866Y-89861904D01*
X81703866Y-89861904D02*
X81608628Y-89814285D01*
X81608628Y-89814285D02*
X81561009Y-89766666D01*
X81561009Y-89766666D02*
X81513390Y-89671428D01*
X151704819Y-104361905D02*
X150704819Y-104361905D01*
X150704819Y-104361905D02*
X150704819Y-104600000D01*
X150704819Y-104600000D02*
X150752438Y-104742857D01*
X150752438Y-104742857D02*
X150847676Y-104838095D01*
X150847676Y-104838095D02*
X150942914Y-104885714D01*
X150942914Y-104885714D02*
X151133390Y-104933333D01*
X151133390Y-104933333D02*
X151276247Y-104933333D01*
X151276247Y-104933333D02*
X151466723Y-104885714D01*
X151466723Y-104885714D02*
X151561961Y-104838095D01*
X151561961Y-104838095D02*
X151657200Y-104742857D01*
X151657200Y-104742857D02*
X151704819Y-104600000D01*
X151704819Y-104600000D02*
X151704819Y-104361905D01*
X150800057Y-105314286D02*
X150752438Y-105361905D01*
X150752438Y-105361905D02*
X150704819Y-105457143D01*
X150704819Y-105457143D02*
X150704819Y-105695238D01*
X150704819Y-105695238D02*
X150752438Y-105790476D01*
X150752438Y-105790476D02*
X150800057Y-105838095D01*
X150800057Y-105838095D02*
X150895295Y-105885714D01*
X150895295Y-105885714D02*
X150990533Y-105885714D01*
X150990533Y-105885714D02*
X151133390Y-105838095D01*
X151133390Y-105838095D02*
X151704819Y-105266667D01*
X151704819Y-105266667D02*
X151704819Y-105885714D01*
X135342857Y-118709580D02*
X135390476Y-118757200D01*
X135390476Y-118757200D02*
X135533333Y-118804819D01*
X135533333Y-118804819D02*
X135628571Y-118804819D01*
X135628571Y-118804819D02*
X135771428Y-118757200D01*
X135771428Y-118757200D02*
X135866666Y-118661961D01*
X135866666Y-118661961D02*
X135914285Y-118566723D01*
X135914285Y-118566723D02*
X135961904Y-118376247D01*
X135961904Y-118376247D02*
X135961904Y-118233390D01*
X135961904Y-118233390D02*
X135914285Y-118042914D01*
X135914285Y-118042914D02*
X135866666Y-117947676D01*
X135866666Y-117947676D02*
X135771428Y-117852438D01*
X135771428Y-117852438D02*
X135628571Y-117804819D01*
X135628571Y-117804819D02*
X135533333Y-117804819D01*
X135533333Y-117804819D02*
X135390476Y-117852438D01*
X135390476Y-117852438D02*
X135342857Y-117900057D01*
X134485714Y-118138152D02*
X134485714Y-118804819D01*
X134723809Y-117757200D02*
X134961904Y-118471485D01*
X134961904Y-118471485D02*
X134342857Y-118471485D01*
X134009523Y-117900057D02*
X133961904Y-117852438D01*
X133961904Y-117852438D02*
X133866666Y-117804819D01*
X133866666Y-117804819D02*
X133628571Y-117804819D01*
X133628571Y-117804819D02*
X133533333Y-117852438D01*
X133533333Y-117852438D02*
X133485714Y-117900057D01*
X133485714Y-117900057D02*
X133438095Y-117995295D01*
X133438095Y-117995295D02*
X133438095Y-118090533D01*
X133438095Y-118090533D02*
X133485714Y-118233390D01*
X133485714Y-118233390D02*
X134057142Y-118804819D01*
X134057142Y-118804819D02*
X133438095Y-118804819D01*
X132211904Y-95054819D02*
X132211904Y-95864342D01*
X132211904Y-95864342D02*
X132164285Y-95959580D01*
X132164285Y-95959580D02*
X132116666Y-96007200D01*
X132116666Y-96007200D02*
X132021428Y-96054819D01*
X132021428Y-96054819D02*
X131830952Y-96054819D01*
X131830952Y-96054819D02*
X131735714Y-96007200D01*
X131735714Y-96007200D02*
X131688095Y-95959580D01*
X131688095Y-95959580D02*
X131640476Y-95864342D01*
X131640476Y-95864342D02*
X131640476Y-95054819D01*
X131259523Y-95054819D02*
X130640476Y-95054819D01*
X130640476Y-95054819D02*
X130973809Y-95435771D01*
X130973809Y-95435771D02*
X130830952Y-95435771D01*
X130830952Y-95435771D02*
X130735714Y-95483390D01*
X130735714Y-95483390D02*
X130688095Y-95531009D01*
X130688095Y-95531009D02*
X130640476Y-95626247D01*
X130640476Y-95626247D02*
X130640476Y-95864342D01*
X130640476Y-95864342D02*
X130688095Y-95959580D01*
X130688095Y-95959580D02*
X130735714Y-96007200D01*
X130735714Y-96007200D02*
X130830952Y-96054819D01*
X130830952Y-96054819D02*
X131116666Y-96054819D01*
X131116666Y-96054819D02*
X131211904Y-96007200D01*
X131211904Y-96007200D02*
X131259523Y-95959580D01*
X151938094Y-120554819D02*
X151938094Y-119554819D01*
X151938094Y-119554819D02*
X151699999Y-119554819D01*
X151699999Y-119554819D02*
X151557142Y-119602438D01*
X151557142Y-119602438D02*
X151461904Y-119697676D01*
X151461904Y-119697676D02*
X151414285Y-119792914D01*
X151414285Y-119792914D02*
X151366666Y-119983390D01*
X151366666Y-119983390D02*
X151366666Y-120126247D01*
X151366666Y-120126247D02*
X151414285Y-120316723D01*
X151414285Y-120316723D02*
X151461904Y-120411961D01*
X151461904Y-120411961D02*
X151557142Y-120507200D01*
X151557142Y-120507200D02*
X151699999Y-120554819D01*
X151699999Y-120554819D02*
X151938094Y-120554819D01*
X150461904Y-119554819D02*
X150938094Y-119554819D01*
X150938094Y-119554819D02*
X150985713Y-120031009D01*
X150985713Y-120031009D02*
X150938094Y-119983390D01*
X150938094Y-119983390D02*
X150842856Y-119935771D01*
X150842856Y-119935771D02*
X150604761Y-119935771D01*
X150604761Y-119935771D02*
X150509523Y-119983390D01*
X150509523Y-119983390D02*
X150461904Y-120031009D01*
X150461904Y-120031009D02*
X150414285Y-120126247D01*
X150414285Y-120126247D02*
X150414285Y-120364342D01*
X150414285Y-120364342D02*
X150461904Y-120459580D01*
X150461904Y-120459580D02*
X150509523Y-120507200D01*
X150509523Y-120507200D02*
X150604761Y-120554819D01*
X150604761Y-120554819D02*
X150842856Y-120554819D01*
X150842856Y-120554819D02*
X150938094Y-120507200D01*
X150938094Y-120507200D02*
X150985713Y-120459580D01*
X135342857Y-125054819D02*
X135676190Y-124578628D01*
X135914285Y-125054819D02*
X135914285Y-124054819D01*
X135914285Y-124054819D02*
X135533333Y-124054819D01*
X135533333Y-124054819D02*
X135438095Y-124102438D01*
X135438095Y-124102438D02*
X135390476Y-124150057D01*
X135390476Y-124150057D02*
X135342857Y-124245295D01*
X135342857Y-124245295D02*
X135342857Y-124388152D01*
X135342857Y-124388152D02*
X135390476Y-124483390D01*
X135390476Y-124483390D02*
X135438095Y-124531009D01*
X135438095Y-124531009D02*
X135533333Y-124578628D01*
X135533333Y-124578628D02*
X135914285Y-124578628D01*
X134485714Y-124388152D02*
X134485714Y-125054819D01*
X134723809Y-124007200D02*
X134961904Y-124721485D01*
X134961904Y-124721485D02*
X134342857Y-124721485D01*
X133819047Y-124483390D02*
X133914285Y-124435771D01*
X133914285Y-124435771D02*
X133961904Y-124388152D01*
X133961904Y-124388152D02*
X134009523Y-124292914D01*
X134009523Y-124292914D02*
X134009523Y-124245295D01*
X134009523Y-124245295D02*
X133961904Y-124150057D01*
X133961904Y-124150057D02*
X133914285Y-124102438D01*
X133914285Y-124102438D02*
X133819047Y-124054819D01*
X133819047Y-124054819D02*
X133628571Y-124054819D01*
X133628571Y-124054819D02*
X133533333Y-124102438D01*
X133533333Y-124102438D02*
X133485714Y-124150057D01*
X133485714Y-124150057D02*
X133438095Y-124245295D01*
X133438095Y-124245295D02*
X133438095Y-124292914D01*
X133438095Y-124292914D02*
X133485714Y-124388152D01*
X133485714Y-124388152D02*
X133533333Y-124435771D01*
X133533333Y-124435771D02*
X133628571Y-124483390D01*
X133628571Y-124483390D02*
X133819047Y-124483390D01*
X133819047Y-124483390D02*
X133914285Y-124531009D01*
X133914285Y-124531009D02*
X133961904Y-124578628D01*
X133961904Y-124578628D02*
X134009523Y-124673866D01*
X134009523Y-124673866D02*
X134009523Y-124864342D01*
X134009523Y-124864342D02*
X133961904Y-124959580D01*
X133961904Y-124959580D02*
X133914285Y-125007200D01*
X133914285Y-125007200D02*
X133819047Y-125054819D01*
X133819047Y-125054819D02*
X133628571Y-125054819D01*
X133628571Y-125054819D02*
X133533333Y-125007200D01*
X133533333Y-125007200D02*
X133485714Y-124959580D01*
X133485714Y-124959580D02*
X133438095Y-124864342D01*
X133438095Y-124864342D02*
X133438095Y-124673866D01*
X133438095Y-124673866D02*
X133485714Y-124578628D01*
X133485714Y-124578628D02*
X133533333Y-124531009D01*
X133533333Y-124531009D02*
X133628571Y-124483390D01*
X118116666Y-102054819D02*
X118449999Y-101578628D01*
X118688094Y-102054819D02*
X118688094Y-101054819D01*
X118688094Y-101054819D02*
X118307142Y-101054819D01*
X118307142Y-101054819D02*
X118211904Y-101102438D01*
X118211904Y-101102438D02*
X118164285Y-101150057D01*
X118164285Y-101150057D02*
X118116666Y-101245295D01*
X118116666Y-101245295D02*
X118116666Y-101388152D01*
X118116666Y-101388152D02*
X118164285Y-101483390D01*
X118164285Y-101483390D02*
X118211904Y-101531009D01*
X118211904Y-101531009D02*
X118307142Y-101578628D01*
X118307142Y-101578628D02*
X118688094Y-101578628D01*
X117783332Y-101054819D02*
X117116666Y-101054819D01*
X117116666Y-101054819D02*
X117545237Y-102054819D01*
X152366666Y-95554819D02*
X152699999Y-95078628D01*
X152938094Y-95554819D02*
X152938094Y-94554819D01*
X152938094Y-94554819D02*
X152557142Y-94554819D01*
X152557142Y-94554819D02*
X152461904Y-94602438D01*
X152461904Y-94602438D02*
X152414285Y-94650057D01*
X152414285Y-94650057D02*
X152366666Y-94745295D01*
X152366666Y-94745295D02*
X152366666Y-94888152D01*
X152366666Y-94888152D02*
X152414285Y-94983390D01*
X152414285Y-94983390D02*
X152461904Y-95031009D01*
X152461904Y-95031009D02*
X152557142Y-95078628D01*
X152557142Y-95078628D02*
X152938094Y-95078628D01*
X151985713Y-94650057D02*
X151938094Y-94602438D01*
X151938094Y-94602438D02*
X151842856Y-94554819D01*
X151842856Y-94554819D02*
X151604761Y-94554819D01*
X151604761Y-94554819D02*
X151509523Y-94602438D01*
X151509523Y-94602438D02*
X151461904Y-94650057D01*
X151461904Y-94650057D02*
X151414285Y-94745295D01*
X151414285Y-94745295D02*
X151414285Y-94840533D01*
X151414285Y-94840533D02*
X151461904Y-94983390D01*
X151461904Y-94983390D02*
X152033332Y-95554819D01*
X152033332Y-95554819D02*
X151414285Y-95554819D01*
X121092857Y-100459580D02*
X121140476Y-100507200D01*
X121140476Y-100507200D02*
X121283333Y-100554819D01*
X121283333Y-100554819D02*
X121378571Y-100554819D01*
X121378571Y-100554819D02*
X121521428Y-100507200D01*
X121521428Y-100507200D02*
X121616666Y-100411961D01*
X121616666Y-100411961D02*
X121664285Y-100316723D01*
X121664285Y-100316723D02*
X121711904Y-100126247D01*
X121711904Y-100126247D02*
X121711904Y-99983390D01*
X121711904Y-99983390D02*
X121664285Y-99792914D01*
X121664285Y-99792914D02*
X121616666Y-99697676D01*
X121616666Y-99697676D02*
X121521428Y-99602438D01*
X121521428Y-99602438D02*
X121378571Y-99554819D01*
X121378571Y-99554819D02*
X121283333Y-99554819D01*
X121283333Y-99554819D02*
X121140476Y-99602438D01*
X121140476Y-99602438D02*
X121092857Y-99650057D01*
X120140476Y-100554819D02*
X120711904Y-100554819D01*
X120426190Y-100554819D02*
X120426190Y-99554819D01*
X120426190Y-99554819D02*
X120521428Y-99697676D01*
X120521428Y-99697676D02*
X120616666Y-99792914D01*
X120616666Y-99792914D02*
X120711904Y-99840533D01*
X119521428Y-99554819D02*
X119426190Y-99554819D01*
X119426190Y-99554819D02*
X119330952Y-99602438D01*
X119330952Y-99602438D02*
X119283333Y-99650057D01*
X119283333Y-99650057D02*
X119235714Y-99745295D01*
X119235714Y-99745295D02*
X119188095Y-99935771D01*
X119188095Y-99935771D02*
X119188095Y-100173866D01*
X119188095Y-100173866D02*
X119235714Y-100364342D01*
X119235714Y-100364342D02*
X119283333Y-100459580D01*
X119283333Y-100459580D02*
X119330952Y-100507200D01*
X119330952Y-100507200D02*
X119426190Y-100554819D01*
X119426190Y-100554819D02*
X119521428Y-100554819D01*
X119521428Y-100554819D02*
X119616666Y-100507200D01*
X119616666Y-100507200D02*
X119664285Y-100459580D01*
X119664285Y-100459580D02*
X119711904Y-100364342D01*
X119711904Y-100364342D02*
X119759523Y-100173866D01*
X119759523Y-100173866D02*
X119759523Y-99935771D01*
X119759523Y-99935771D02*
X119711904Y-99745295D01*
X119711904Y-99745295D02*
X119664285Y-99650057D01*
X119664285Y-99650057D02*
X119616666Y-99602438D01*
X119616666Y-99602438D02*
X119521428Y-99554819D01*
X152366666Y-97054819D02*
X152699999Y-96578628D01*
X152938094Y-97054819D02*
X152938094Y-96054819D01*
X152938094Y-96054819D02*
X152557142Y-96054819D01*
X152557142Y-96054819D02*
X152461904Y-96102438D01*
X152461904Y-96102438D02*
X152414285Y-96150057D01*
X152414285Y-96150057D02*
X152366666Y-96245295D01*
X152366666Y-96245295D02*
X152366666Y-96388152D01*
X152366666Y-96388152D02*
X152414285Y-96483390D01*
X152414285Y-96483390D02*
X152461904Y-96531009D01*
X152461904Y-96531009D02*
X152557142Y-96578628D01*
X152557142Y-96578628D02*
X152938094Y-96578628D01*
X152033332Y-96054819D02*
X151414285Y-96054819D01*
X151414285Y-96054819D02*
X151747618Y-96435771D01*
X151747618Y-96435771D02*
X151604761Y-96435771D01*
X151604761Y-96435771D02*
X151509523Y-96483390D01*
X151509523Y-96483390D02*
X151461904Y-96531009D01*
X151461904Y-96531009D02*
X151414285Y-96626247D01*
X151414285Y-96626247D02*
X151414285Y-96864342D01*
X151414285Y-96864342D02*
X151461904Y-96959580D01*
X151461904Y-96959580D02*
X151509523Y-97007200D01*
X151509523Y-97007200D02*
X151604761Y-97054819D01*
X151604761Y-97054819D02*
X151890475Y-97054819D01*
X151890475Y-97054819D02*
X151985713Y-97007200D01*
X151985713Y-97007200D02*
X152033332Y-96959580D01*
X135242857Y-117459580D02*
X135290476Y-117507200D01*
X135290476Y-117507200D02*
X135433333Y-117554819D01*
X135433333Y-117554819D02*
X135528571Y-117554819D01*
X135528571Y-117554819D02*
X135671428Y-117507200D01*
X135671428Y-117507200D02*
X135766666Y-117411961D01*
X135766666Y-117411961D02*
X135814285Y-117316723D01*
X135814285Y-117316723D02*
X135861904Y-117126247D01*
X135861904Y-117126247D02*
X135861904Y-116983390D01*
X135861904Y-116983390D02*
X135814285Y-116792914D01*
X135814285Y-116792914D02*
X135766666Y-116697676D01*
X135766666Y-116697676D02*
X135671428Y-116602438D01*
X135671428Y-116602438D02*
X135528571Y-116554819D01*
X135528571Y-116554819D02*
X135433333Y-116554819D01*
X135433333Y-116554819D02*
X135290476Y-116602438D01*
X135290476Y-116602438D02*
X135242857Y-116650057D01*
X134385714Y-116888152D02*
X134385714Y-117554819D01*
X134623809Y-116507200D02*
X134861904Y-117221485D01*
X134861904Y-117221485D02*
X134242857Y-117221485D01*
X133338095Y-117554819D02*
X133909523Y-117554819D01*
X133623809Y-117554819D02*
X133623809Y-116554819D01*
X133623809Y-116554819D02*
X133719047Y-116697676D01*
X133719047Y-116697676D02*
X133814285Y-116792914D01*
X133814285Y-116792914D02*
X133909523Y-116840533D01*
X129116666Y-90459580D02*
X129164285Y-90507200D01*
X129164285Y-90507200D02*
X129307142Y-90554819D01*
X129307142Y-90554819D02*
X129402380Y-90554819D01*
X129402380Y-90554819D02*
X129545237Y-90507200D01*
X129545237Y-90507200D02*
X129640475Y-90411961D01*
X129640475Y-90411961D02*
X129688094Y-90316723D01*
X129688094Y-90316723D02*
X129735713Y-90126247D01*
X129735713Y-90126247D02*
X129735713Y-89983390D01*
X129735713Y-89983390D02*
X129688094Y-89792914D01*
X129688094Y-89792914D02*
X129640475Y-89697676D01*
X129640475Y-89697676D02*
X129545237Y-89602438D01*
X129545237Y-89602438D02*
X129402380Y-89554819D01*
X129402380Y-89554819D02*
X129307142Y-89554819D01*
X129307142Y-89554819D02*
X129164285Y-89602438D01*
X129164285Y-89602438D02*
X129116666Y-89650057D01*
X128259523Y-89888152D02*
X128259523Y-90554819D01*
X128497618Y-89507200D02*
X128735713Y-90221485D01*
X128735713Y-90221485D02*
X128116666Y-90221485D01*
X132688094Y-124054819D02*
X132116666Y-124054819D01*
X132402380Y-125054819D02*
X132402380Y-124054819D01*
X131878570Y-124054819D02*
X131211904Y-125054819D01*
X131211904Y-124054819D02*
X131878570Y-125054819D01*
X130402380Y-124388152D02*
X130402380Y-125054819D01*
X130640475Y-124007200D02*
X130878570Y-124721485D01*
X130878570Y-124721485D02*
X130259523Y-124721485D01*
X84592857Y-86529580D02*
X84640476Y-86577200D01*
X84640476Y-86577200D02*
X84783333Y-86624819D01*
X84783333Y-86624819D02*
X84878571Y-86624819D01*
X84878571Y-86624819D02*
X85021428Y-86577200D01*
X85021428Y-86577200D02*
X85116666Y-86481961D01*
X85116666Y-86481961D02*
X85164285Y-86386723D01*
X85164285Y-86386723D02*
X85211904Y-86196247D01*
X85211904Y-86196247D02*
X85211904Y-86053390D01*
X85211904Y-86053390D02*
X85164285Y-85862914D01*
X85164285Y-85862914D02*
X85116666Y-85767676D01*
X85116666Y-85767676D02*
X85021428Y-85672438D01*
X85021428Y-85672438D02*
X84878571Y-85624819D01*
X84878571Y-85624819D02*
X84783333Y-85624819D01*
X84783333Y-85624819D02*
X84640476Y-85672438D01*
X84640476Y-85672438D02*
X84592857Y-85720057D01*
X83640476Y-86624819D02*
X84211904Y-86624819D01*
X83926190Y-86624819D02*
X83926190Y-85624819D01*
X83926190Y-85624819D02*
X84021428Y-85767676D01*
X84021428Y-85767676D02*
X84116666Y-85862914D01*
X84116666Y-85862914D02*
X84211904Y-85910533D01*
X83164285Y-86624819D02*
X82973809Y-86624819D01*
X82973809Y-86624819D02*
X82878571Y-86577200D01*
X82878571Y-86577200D02*
X82830952Y-86529580D01*
X82830952Y-86529580D02*
X82735714Y-86386723D01*
X82735714Y-86386723D02*
X82688095Y-86196247D01*
X82688095Y-86196247D02*
X82688095Y-85815295D01*
X82688095Y-85815295D02*
X82735714Y-85720057D01*
X82735714Y-85720057D02*
X82783333Y-85672438D01*
X82783333Y-85672438D02*
X82878571Y-85624819D01*
X82878571Y-85624819D02*
X83069047Y-85624819D01*
X83069047Y-85624819D02*
X83164285Y-85672438D01*
X83164285Y-85672438D02*
X83211904Y-85720057D01*
X83211904Y-85720057D02*
X83259523Y-85815295D01*
X83259523Y-85815295D02*
X83259523Y-86053390D01*
X83259523Y-86053390D02*
X83211904Y-86148628D01*
X83211904Y-86148628D02*
X83164285Y-86196247D01*
X83164285Y-86196247D02*
X83069047Y-86243866D01*
X83069047Y-86243866D02*
X82878571Y-86243866D01*
X82878571Y-86243866D02*
X82783333Y-86196247D01*
X82783333Y-86196247D02*
X82735714Y-86148628D01*
X82735714Y-86148628D02*
X82688095Y-86053390D01*
X151092857Y-127804819D02*
X151426190Y-127328628D01*
X151664285Y-127804819D02*
X151664285Y-126804819D01*
X151664285Y-126804819D02*
X151283333Y-126804819D01*
X151283333Y-126804819D02*
X151188095Y-126852438D01*
X151188095Y-126852438D02*
X151140476Y-126900057D01*
X151140476Y-126900057D02*
X151092857Y-126995295D01*
X151092857Y-126995295D02*
X151092857Y-127138152D01*
X151092857Y-127138152D02*
X151140476Y-127233390D01*
X151140476Y-127233390D02*
X151188095Y-127281009D01*
X151188095Y-127281009D02*
X151283333Y-127328628D01*
X151283333Y-127328628D02*
X151664285Y-127328628D01*
X150711904Y-126900057D02*
X150664285Y-126852438D01*
X150664285Y-126852438D02*
X150569047Y-126804819D01*
X150569047Y-126804819D02*
X150330952Y-126804819D01*
X150330952Y-126804819D02*
X150235714Y-126852438D01*
X150235714Y-126852438D02*
X150188095Y-126900057D01*
X150188095Y-126900057D02*
X150140476Y-126995295D01*
X150140476Y-126995295D02*
X150140476Y-127090533D01*
X150140476Y-127090533D02*
X150188095Y-127233390D01*
X150188095Y-127233390D02*
X150759523Y-127804819D01*
X150759523Y-127804819D02*
X150140476Y-127804819D01*
X149807142Y-126804819D02*
X149140476Y-126804819D01*
X149140476Y-126804819D02*
X149569047Y-127804819D01*
D12*
%TO.C,U4*%
X114440000Y-105840000D02*
X114440000Y-111360000D01*
X114440000Y-111360000D02*
X114710000Y-111360000D01*
X114710000Y-105840000D02*
X114440000Y-105840000D01*
X119690000Y-111360000D02*
X119960000Y-111360000D01*
X119960000Y-105840000D02*
X119690000Y-105840000D01*
X119960000Y-111360000D02*
X119960000Y-105840000D01*
X120170000Y-112530000D02*
X119700000Y-112190000D01*
X120170000Y-111850000D01*
X120170000Y-112530000D01*
G36*
X120170000Y-112530000D02*
G01*
X119700000Y-112190000D01*
X120170000Y-111850000D01*
X120170000Y-112530000D01*
G37*
%TO.C,R4*%
X150353641Y-97420000D02*
X150046359Y-97420000D01*
X150353641Y-98180000D02*
X150046359Y-98180000D01*
D10*
%TO.C,E22-400M22S2*%
X134293534Y-106117973D02*
X134293534Y-107117973D01*
X134293534Y-107117973D02*
X135293534Y-107117973D01*
X134361299Y-86543202D02*
X134361299Y-87543202D01*
X135361299Y-86543202D02*
X134361299Y-86543202D01*
X147906465Y-107179905D02*
X148906465Y-107179905D01*
X148866750Y-86540438D02*
X147866750Y-86540438D01*
X148866750Y-87540438D02*
X148866750Y-86540438D01*
X148906465Y-107179905D02*
X148906465Y-106179905D01*
D12*
%TO.C,C3*%
X128040000Y-93427836D02*
X128040000Y-93212164D01*
X128760000Y-93427836D02*
X128760000Y-93212164D01*
%TO.C,R26*%
X150637258Y-123577500D02*
X150162742Y-123577500D01*
X150637258Y-124622500D02*
X150162742Y-124622500D01*
%TO.C,U7*%
X84350000Y-90190000D02*
X88110000Y-90190000D01*
X84350000Y-97010000D02*
X88110000Y-97010000D01*
X88110000Y-90190000D02*
X88110000Y-91450000D01*
X88110000Y-97010000D02*
X88110000Y-95750000D01*
X83310000Y-97240000D02*
X82830000Y-97240000D01*
X83070000Y-96910000D01*
X83310000Y-97240000D01*
G36*
X83310000Y-97240000D02*
G01*
X82830000Y-97240000D01*
X83070000Y-96910000D01*
X83310000Y-97240000D01*
G37*
%TO.C,R1*%
X150353641Y-93420000D02*
X150046359Y-93420000D01*
X150353641Y-94180000D02*
X150046359Y-94180000D01*
%TO.C,C5*%
X131690000Y-88288748D02*
X131690000Y-89711252D01*
X133510000Y-88288748D02*
X133510000Y-89711252D01*
%TO.C,C25*%
X89850000Y-109740000D02*
X89850000Y-102500000D01*
X89850000Y-111240000D02*
X90600000Y-110490000D01*
X89850000Y-112740000D02*
X89850000Y-111240000D01*
X90600000Y-110490000D02*
X89850000Y-109740000D01*
X92970000Y-101360000D02*
X92970000Y-102500000D01*
X92970000Y-113880000D02*
X92970000Y-112740000D01*
X95170000Y-114490000D02*
X95170000Y-112990000D01*
X95340000Y-110490000D02*
X96090000Y-109740000D01*
X95920000Y-113740000D02*
X94420000Y-113740000D01*
X96090000Y-102500000D02*
X89850000Y-102500000D01*
X96090000Y-109740000D02*
X96090000Y-102500000D01*
X96090000Y-111240000D02*
X95340000Y-110490000D01*
X96090000Y-112740000D02*
X89850000Y-112740000D01*
X96090000Y-112740000D02*
X96090000Y-111240000D01*
%TO.C,U2*%
X137240000Y-116940000D02*
X147160000Y-116940000D01*
X137240000Y-117090000D02*
X137240000Y-116940000D01*
X137240000Y-127260000D02*
X137240000Y-127110000D01*
X137240000Y-127260000D02*
X147160000Y-127260000D01*
X147160000Y-117090000D02*
X147160000Y-116940000D01*
X147160000Y-127260000D02*
X147160000Y-127110000D01*
X137010000Y-127440000D02*
X136530000Y-127440000D01*
X136770000Y-127110000D01*
X137010000Y-127440000D01*
G36*
X137010000Y-127440000D02*
G01*
X136530000Y-127440000D01*
X136770000Y-127110000D01*
X137010000Y-127440000D01*
G37*
%TO.C,C18*%
X79690000Y-88740580D02*
X79690000Y-88459420D01*
X80710000Y-88740580D02*
X80710000Y-88459420D01*
%TO.C,D2*%
X149350000Y-104400000D02*
X149350000Y-106360000D01*
X150550000Y-104400000D02*
X150550000Y-106360000D01*
X150550000Y-106360000D02*
X149350000Y-106360000D01*
%TO.C,C42*%
X134740580Y-120390000D02*
X134459420Y-120390000D01*
X134740580Y-121410000D02*
X134459420Y-121410000D01*
%TO.C,U3*%
X130690000Y-91640000D02*
X130690000Y-91690000D01*
X130690000Y-92810000D02*
X130690000Y-93590000D01*
X130690000Y-94710000D02*
X130690000Y-94760000D01*
X130690000Y-94760000D02*
X132510000Y-94760000D01*
X132510000Y-91640000D02*
X130690000Y-91640000D01*
X132510000Y-91690000D02*
X132510000Y-91640000D01*
X132510000Y-94760000D02*
X132510000Y-94710000D01*
X133050000Y-91690000D02*
X132810000Y-91360000D01*
X133290000Y-91360000D01*
X133050000Y-91690000D01*
G36*
X133050000Y-91690000D02*
G01*
X132810000Y-91360000D01*
X133290000Y-91360000D01*
X133050000Y-91690000D01*
G37*
%TO.C,D5*%
X148800000Y-118700000D02*
X148800000Y-120660000D01*
X150000000Y-118700000D02*
X150000000Y-120660000D01*
X150000000Y-120660000D02*
X148800000Y-120660000D01*
%TO.C,R48*%
X135046359Y-122770000D02*
X135353641Y-122770000D01*
X135046359Y-123530000D02*
X135353641Y-123530000D01*
%TO.C,R7*%
X118487742Y-102527500D02*
X118962258Y-102527500D01*
X118487742Y-103572500D02*
X118962258Y-103572500D01*
%TO.C,R2*%
X150353641Y-94820000D02*
X150046359Y-94820000D01*
X150353641Y-95580000D02*
X150046359Y-95580000D01*
%TO.C,C10*%
X120259420Y-100890000D02*
X120540580Y-100890000D01*
X120259420Y-101910000D02*
X120540580Y-101910000D01*
%TO.C,R3*%
X150353641Y-96020000D02*
X150046359Y-96020000D01*
X150353641Y-96780000D02*
X150046359Y-96780000D01*
%TO.C,C41*%
X134707836Y-119140000D02*
X134492164Y-119140000D01*
X134707836Y-119860000D02*
X134492164Y-119860000D01*
%TO.C,C4*%
X130040000Y-89812164D02*
X130040000Y-90027836D01*
X130760000Y-89812164D02*
X130760000Y-90027836D01*
%TO.C,TX4*%
X130965000Y-122415000D02*
X133250000Y-122415000D01*
X130965000Y-123885000D02*
X130965000Y-122415000D01*
X133250000Y-123885000D02*
X130965000Y-123885000D01*
%TO.C,C19*%
X84090580Y-87090000D02*
X83809420Y-87090000D01*
X84090580Y-88110000D02*
X83809420Y-88110000D01*
%TO.C,R27*%
X150637258Y-125177500D02*
X150162742Y-125177500D01*
X150637258Y-126222500D02*
X150162742Y-126222500D01*
%TD*%
M02*
